<?xml version="1.0" encoding="utf-8"?>
<!-- Generator: Adobe Illustrator 23.0.3, SVG Export Plug-In . SVG Version: 6.00 Build 0)  -->
<svg version="1.1" id="Layer_1" xmlns="http://www.w3.org/2000/svg" xmlns:xlink="http://www.w3.org/1999/xlink" x="0px" y="0px"
	 viewBox="0 0 1249.1 178.1" style="enable-background:new 0 0 1249.1 178.1;" xml:space="preserve">
<style type="text/css">
	.st0{fill:#00AEEF;stroke:#231F20;stroke-width:2;stroke-miterlimit:10;}
	.st1{fill:#FFFFFF;}
	.st2{fill:none;stroke:#6D6E71;stroke-width:2;stroke-miterlimit:10;}
	.st3{fill:none;stroke:#6D6E71;stroke-width:2;stroke-miterlimit:10;stroke-dasharray:11.9,11.9;}
	.st4{fill:none;stroke:#6D6E71;stroke-width:2;stroke-miterlimit:10;stroke-dasharray:9.6,9.6;}
	.st5{fill:none;stroke:#6D6E71;stroke-width:2;stroke-miterlimit:10;stroke-dasharray:11.7,11.7;}
	.st6{fill:none;stroke:#6D6E71;stroke-width:2;stroke-miterlimit:10;stroke-dasharray:10.91,10.91;}
	.st7{fill:#231F20;stroke:#231F20;stroke-width:2;stroke-miterlimit:10;}
	.st8{fill:none;stroke:#231F20;stroke-width:3;stroke-miterlimit:10;}
	.st9{fill:#231F20;}
	.st10{fill:none;stroke:#231F20;stroke-width:2;stroke-miterlimit:10;}
	.st11{fill:none;stroke:#939598;stroke-miterlimit:10;}
	.st12{fill:url(#SVGID_1_);stroke:#939598;stroke-miterlimit:10;}
	.st13{fill:url(#SVGID_2_);stroke:#939598;stroke-miterlimit:10;}
	.st14{fill:url(#SVGID_3_);stroke:#939598;stroke-miterlimit:10;}
	.st15{fill:url(#SVGID_4_);stroke:#939598;stroke-miterlimit:10;}
	.st16{fill:url(#SVGID_5_);stroke:#939598;stroke-miterlimit:10;}
	.st17{fill:url(#SVGID_6_);stroke:#939598;stroke-miterlimit:10;}
	.st18{fill:url(#SVGID_7_);stroke:#939598;stroke-miterlimit:10;}
	.st19{fill:url(#SVGID_8_);stroke:#939598;stroke-miterlimit:10;}
	.st20{fill:url(#SVGID_9_);stroke:#939598;stroke-miterlimit:10;}
	.st21{fill:url(#SVGID_10_);stroke:#939598;stroke-miterlimit:10;}
	.st22{fill:url(#SVGID_11_);stroke:#939598;stroke-miterlimit:10;}
	.st23{fill:url(#SVGID_12_);stroke:#939598;stroke-miterlimit:10;}
	.st24{fill:url(#SVGID_13_);stroke:#939598;stroke-miterlimit:10;}
	.st25{fill:url(#SVGID_14_);stroke:#939598;stroke-miterlimit:10;}
	.st26{fill:url(#SVGID_15_);stroke:#939598;stroke-miterlimit:10;}
	.st27{fill:url(#SVGID_16_);stroke:#939598;stroke-miterlimit:10;}
	.st28{fill:url(#SVGID_17_);stroke:#939598;stroke-miterlimit:10;}
	.st29{fill:url(#SVGID_18_);stroke:#939598;stroke-miterlimit:10;}
	.st30{fill:url(#SVGID_19_);stroke:#939598;stroke-miterlimit:10;}
	.st31{fill:url(#SVGID_20_);stroke:#939598;stroke-miterlimit:10;}
	.st32{fill:url(#SVGID_21_);stroke:#939598;stroke-miterlimit:10;}
	.st33{fill:url(#SVGID_22_);stroke:#939598;stroke-miterlimit:10;}
	.st34{fill:url(#SVGID_23_);stroke:#939598;stroke-miterlimit:10;}
	.st35{fill:url(#SVGID_24_);stroke:#939598;stroke-miterlimit:10;}
	.st36{fill:url(#SVGID_25_);stroke:#939598;stroke-miterlimit:10;}
	.st37{fill:url(#SVGID_26_);stroke:#939598;stroke-miterlimit:10;}
	.st38{fill:url(#SVGID_27_);stroke:#939598;stroke-miterlimit:10;}
	.st39{fill:url(#SVGID_28_);stroke:#939598;stroke-miterlimit:10;}
	.st40{fill:url(#SVGID_29_);stroke:#939598;stroke-miterlimit:10;}
	.st41{fill:url(#SVGID_30_);stroke:#939598;stroke-miterlimit:10;}
	.st42{fill:url(#SVGID_31_);stroke:#939598;stroke-miterlimit:10;}
	.st43{fill:url(#SVGID_32_);stroke:#939598;stroke-miterlimit:10;}
	.st44{fill:url(#SVGID_33_);stroke:#939598;stroke-miterlimit:10;}
	.st45{fill:url(#SVGID_34_);stroke:#939598;stroke-miterlimit:10;}
	.st46{fill:url(#SVGID_35_);stroke:#939598;stroke-miterlimit:10;}
	.st47{fill:url(#SVGID_36_);stroke:#939598;stroke-miterlimit:10;}
	.st48{fill:url(#SVGID_37_);stroke:#939598;stroke-miterlimit:10;}
	.st49{fill:url(#SVGID_38_);stroke:#939598;stroke-miterlimit:10;}
	.st50{fill:url(#SVGID_39_);stroke:#939598;stroke-miterlimit:10;}
	.st51{fill:url(#SVGID_40_);stroke:#939598;stroke-miterlimit:10;}
	.st52{fill:url(#SVGID_41_);stroke:#939598;stroke-miterlimit:10;}
	.st53{fill:url(#SVGID_42_);stroke:#939598;stroke-miterlimit:10;}
	.st54{fill:url(#SVGID_43_);stroke:#939598;stroke-miterlimit:10;}
	.st55{fill:url(#SVGID_44_);stroke:#939598;stroke-miterlimit:10;}
	.st56{fill:url(#SVGID_45_);stroke:#939598;stroke-miterlimit:10;}
	.st57{fill:url(#SVGID_46_);stroke:#939598;stroke-miterlimit:10;}
	.st58{fill:url(#SVGID_47_);stroke:#939598;stroke-miterlimit:10;}
	.st59{fill:url(#SVGID_48_);stroke:#939598;stroke-miterlimit:10;}
	.st60{fill:url(#SVGID_49_);stroke:#939598;stroke-miterlimit:10;}
	.st61{fill:url(#SVGID_50_);stroke:#939598;stroke-miterlimit:10;}
	.st62{fill:url(#SVGID_51_);stroke:#939598;stroke-miterlimit:10;}
	.st63{fill:url(#SVGID_52_);stroke:#939598;stroke-miterlimit:10;}
	.st64{fill:url(#SVGID_53_);stroke:#939598;stroke-miterlimit:10;}
	.st65{fill:#231F20;stroke:#939598;stroke-miterlimit:10;}
	.st66{fill:url(#SVGID_54_);stroke:#939598;stroke-miterlimit:10;}
	.st67{fill:url(#SVGID_55_);stroke:#939598;stroke-miterlimit:10;}
	.st68{fill:url(#SVGID_56_);stroke:#939598;stroke-miterlimit:10;}
	.st69{fill:url(#SVGID_57_);stroke:#939598;stroke-miterlimit:10;}
	.st70{fill:url(#SVGID_58_);stroke:#939598;stroke-miterlimit:10;}
	.st71{fill:url(#SVGID_59_);stroke:#939598;stroke-miterlimit:10;}
	.st72{fill:url(#SVGID_60_);stroke:#939598;stroke-miterlimit:10;}
</style>
<title>webgl-triangle-pipeline</title>
<rect x="49.3" y="22" class="st0" width="180" height="60"/>
<rect x="658" y="22" class="st0" width="180" height="60"/>
<rect x="269.7" y="22" class="st1" width="166.7" height="60"/>
<polyline class="st2" points="436.4,76 436.4,82 430.4,82 "/>
<line class="st3" x1="418.5" y1="82" x2="281.7" y2="82"/>
<polyline class="st2" points="275.7,82 269.7,82 269.7,76 "/>
<line class="st4" x1="269.7" y1="66.4" x2="269.7" y2="32.8"/>
<polyline class="st2" points="269.7,28 269.7,22 275.7,22 "/>
<line class="st3" x1="287.6" y1="22" x2="424.4" y2="22"/>
<polyline class="st2" points="430.4,22 436.4,22 436.4,28 "/>
<line class="st4" x1="436.4" y1="37.6" x2="436.4" y2="71.2"/>
<rect x="476.8" y="22" class="st1" width="140.7" height="60"/>
<polyline class="st2" points="617.5,76 617.5,82 611.5,82 "/>
<line class="st5" x1="599.8" y1="82" x2="488.7" y2="82"/>
<polyline class="st2" points="482.8,82 476.8,82 476.8,76 "/>
<line class="st4" x1="476.8" y1="66.4" x2="476.8" y2="32.8"/>
<polyline class="st2" points="476.8,28 476.8,22 482.8,22 "/>
<line class="st5" x1="494.5" y1="22" x2="605.7" y2="22"/>
<polyline class="st2" points="611.5,22 617.5,22 617.5,28 "/>
<line class="st4" x1="617.5" y1="37.6" x2="617.5" y2="71.2"/>
<rect x="878.4" y="22" class="st1" width="132" height="60"/>
<polyline class="st2" points="1010.4,76 1010.4,82 1004.4,82 "/>
<line class="st6" x1="993.5" y1="82" x2="889.9" y2="82"/>
<polyline class="st2" points="884.4,82 878.4,82 878.4,76 "/>
<line class="st4" x1="878.4" y1="66.4" x2="878.4" y2="32.8"/>
<polyline class="st2" points="878.4,28 878.4,22 884.4,22 "/>
<line class="st6" x1="895.3" y1="22" x2="999" y2="22"/>
<polyline class="st2" points="1004.4,22 1010.4,22 1010.4,28 "/>
<line class="st4" x1="1010.4" y1="37.6" x2="1010.4" y2="71.2"/>
<circle class="st7" cx="9.7" cy="76.8" r="5"/>
<circle class="st7" cx="27" cy="62.1" r="5"/>
<circle class="st7" cx="6" cy="52.7" r="5"/>
<line class="st8" x1="8" y1="36" x2="49" y2="36"/>
<path class="st9" d="M67.1,36c-8.5,3.2-19.1,8.6-25.6,14.3L46.6,36l-5.2-14.3C48,27.4,58.5,32.8,67.1,36z"/>
<line class="st8" x1="226.5" y1="36" x2="266.4" y2="36"/>
<path class="st9" d="M284.5,36c-8.5,3.2-19.1,8.6-25.6,14.3L264,36l-5.1-14.3C265.4,27.4,276,32.8,284.5,36z"/>
<line class="st8" x1="424.6" y1="36" x2="464.9" y2="36"/>
<path class="st9" d="M483,36c-8.5,3.2-19.1,8.6-25.6,14.3l5.2-14.3l-5.2-14.3C463.9,27.4,474.5,32.8,483,36z"/>
<line class="st8" x1="607.9" y1="36" x2="647.8" y2="36"/>
<path class="st9" d="M665.9,36c-8.5,3.2-19.1,8.6-25.7,14.3l5.2-14.3l-5.2-14.3C646.9,27.4,657.4,32.8,665.9,36z"/>
<line class="st8" x1="830.5" y1="36" x2="870.4" y2="36"/>
<path class="st9" d="M888.5,36c-8.5,3.2-19.1,8.6-25.6,14.3L868,36l-5.2-14.3C869.4,27.4,880,32.8,888.5,36z"/>
<circle class="st7" cx="292.5" cy="170.9" r="6.3"/>
<circle class="st7" cx="434.5" cy="145.4" r="6.3"/>
<circle class="st7" cx="271.6" cy="95.5" r="6.3"/>
<polygon class="st10" points="434.5,145.4 271.6,95.5 292.5,170.9 "/>
<circle class="st7" cx="486.7" cy="170.9" r="6.3"/>
<circle class="st7" cx="628.6" cy="145.4" r="6.3"/>
<circle class="st7" cx="465.7" cy="95.5" r="6.3"/>
<polygon class="st10" points="628.6,145.4 465.7,95.5 486.7,170.9 "/>
<rect x="470.2" y="124.1" class="st11" width="12.5" height="12.5"/>
<rect x="485.6" y="124.1" class="st11" width="12.5" height="12.5"/>
<rect x="501" y="124.1" class="st11" width="12.5" height="12.5"/>
<rect x="516.4" y="124.1" class="st11" width="12.5" height="12.5"/>
<rect x="531.9" y="124.1" class="st11" width="12.5" height="12.5"/>
<rect x="547.3" y="124.1" class="st11" width="12.5" height="12.5"/>
<rect x="562.7" y="123.8" class="st11" width="12.5" height="12.5"/>
<rect x="578.1" y="123.8" class="st11" width="12.5" height="12.5"/>
<rect x="470.2" y="139.1" class="st11" width="12.5" height="12.5"/>
<rect x="485.6" y="139.1" class="st11" width="12.5" height="12.5"/>
<rect x="501" y="139.1" class="st11" width="12.5" height="12.5"/>
<rect x="516.4" y="139.1" class="st11" width="12.5" height="12.5"/>
<rect x="531.9" y="139.1" class="st11" width="12.5" height="12.5"/>
<rect x="547.3" y="139.1" class="st11" width="12.5" height="12.5"/>
<rect x="562.7" y="138.8" class="st11" width="12.5" height="12.5"/>
<rect x="578.1" y="138.8" class="st11" width="12.5" height="12.5"/>
<rect x="593.5" y="138.5" class="st11" width="12.5" height="12.5"/>
<rect x="470.2" y="109.1" class="st11" width="12.5" height="12.5"/>
<rect x="485.6" y="109.1" class="st11" width="12.5" height="12.5"/>
<rect x="501" y="109.1" class="st11" width="12.5" height="12.5"/>
<rect x="516.4" y="109.1" class="st11" width="12.5" height="12.5"/>
<rect x="531.9" y="109.1" class="st11" width="12.5" height="12.5"/>
<rect x="470.2" y="94.1" class="st11" width="12.5" height="12.5"/>
<rect x="485.6" y="94.1" class="st11" width="12.5" height="12.5"/>
<rect x="485.6" y="154.1" class="st11" width="12.5" height="12.5"/>
<rect x="501" y="154.1" class="st11" width="12.5" height="12.5"/>
<rect x="516.4" y="154.1" class="st11" width="12.5" height="12.5"/>
<rect x="531.9" y="154.1" class="st11" width="12.5" height="12.5"/>
<rect x="609" y="138.5" class="st11" width="12.5" height="12.5"/>
<circle class="st7" cx="687.5" cy="170.9" r="6.3"/>
<circle class="st7" cx="829.4" cy="145.4" r="6.3"/>
<circle class="st7" cx="666.5" cy="95.5" r="6.3"/>
<polygon class="st10" points="829.4,145.4 666.5,95.5 687.5,170.9 "/>
<linearGradient id="SVGID_1_" gradientUnits="userSpaceOnUse" x1="658.9291" y1="61.1886" x2="769.8392" y2="-8.9214" gradientTransform="matrix(1 0 0 -1 0 180)">
	<stop  offset="0" style="stop-color:#FFF33B"/>
	<stop  offset="4.000000e-02" style="stop-color:#FEE72E"/>
	<stop  offset="0.1" style="stop-color:#FED51B"/>
	<stop  offset="0.17" style="stop-color:#FDCA10"/>
	<stop  offset="0.25" style="stop-color:#FDC70C"/>
	<stop  offset="0.5" style="stop-color:#F3903F"/>
	<stop  offset="0.75" style="stop-color:#ED683C"/>
	<stop  offset="1" style="stop-color:#E93E3A"/>
</linearGradient>
<rect x="671" y="124.1" class="st12" width="12.5" height="12.5"/>
<linearGradient id="SVGID_2_" gradientUnits="userSpaceOnUse" x1="663.3391" y1="68.1485" x2="774.249" y2="-1.9615" gradientTransform="matrix(1 0 0 -1 0 180)">
	<stop  offset="0" style="stop-color:#FFF33B"/>
	<stop  offset="4.000000e-02" style="stop-color:#FEE72E"/>
	<stop  offset="0.1" style="stop-color:#FED51B"/>
	<stop  offset="0.17" style="stop-color:#FDCA10"/>
	<stop  offset="0.25" style="stop-color:#FDC70C"/>
	<stop  offset="0.5" style="stop-color:#F3903F"/>
	<stop  offset="0.75" style="stop-color:#ED683C"/>
	<stop  offset="1" style="stop-color:#E93E3A"/>
</linearGradient>
<rect x="686.4" y="124.1" class="st13" width="12.5" height="12.5"/>
<linearGradient id="SVGID_3_" gradientUnits="userSpaceOnUse" x1="667.749" y1="75.1083" x2="778.6589" y2="4.9983" gradientTransform="matrix(1 0 0 -1 0 180)">
	<stop  offset="0" style="stop-color:#FFF33B"/>
	<stop  offset="4.000000e-02" style="stop-color:#FEE72E"/>
	<stop  offset="0.1" style="stop-color:#FED51B"/>
	<stop  offset="0.17" style="stop-color:#FDCA10"/>
	<stop  offset="0.25" style="stop-color:#FDC70C"/>
	<stop  offset="0.5" style="stop-color:#F3903F"/>
	<stop  offset="0.75" style="stop-color:#ED683C"/>
	<stop  offset="1" style="stop-color:#E93E3A"/>
</linearGradient>
<rect x="701.8" y="124.1" class="st14" width="12.5" height="12.5"/>
<linearGradient id="SVGID_4_" gradientUnits="userSpaceOnUse" x1="672.1588" y1="82.0682" x2="783.0688" y2="11.9582" gradientTransform="matrix(1 0 0 -1 0 180)">
	<stop  offset="0" style="stop-color:#FFF33B"/>
	<stop  offset="4.000000e-02" style="stop-color:#FEE72E"/>
	<stop  offset="0.1" style="stop-color:#FED51B"/>
	<stop  offset="0.17" style="stop-color:#FDCA10"/>
	<stop  offset="0.25" style="stop-color:#FDC70C"/>
	<stop  offset="0.5" style="stop-color:#F3903F"/>
	<stop  offset="0.75" style="stop-color:#ED683C"/>
	<stop  offset="1" style="stop-color:#E93E3A"/>
</linearGradient>
<rect x="717.2" y="124.1" class="st15" width="12.5" height="12.5"/>
<linearGradient id="SVGID_5_" gradientUnits="userSpaceOnUse" x1="676.5688" y1="89.028" x2="787.4788" y2="18.918" gradientTransform="matrix(1 0 0 -1 0 180)">
	<stop  offset="0" style="stop-color:#FFF33B"/>
	<stop  offset="4.000000e-02" style="stop-color:#FEE72E"/>
	<stop  offset="0.1" style="stop-color:#FED51B"/>
	<stop  offset="0.17" style="stop-color:#FDCA10"/>
	<stop  offset="0.25" style="stop-color:#FDC70C"/>
	<stop  offset="0.5" style="stop-color:#F3903F"/>
	<stop  offset="0.75" style="stop-color:#ED683C"/>
	<stop  offset="1" style="stop-color:#E93E3A"/>
</linearGradient>
<rect x="732.7" y="124.1" class="st16" width="12.5" height="12.5"/>
<linearGradient id="SVGID_6_" gradientUnits="userSpaceOnUse" x1="680.9786" y1="95.9879" x2="791.8887" y2="25.8779" gradientTransform="matrix(1 0 0 -1 0 180)">
	<stop  offset="0" style="stop-color:#FFF33B"/>
	<stop  offset="4.000000e-02" style="stop-color:#FEE72E"/>
	<stop  offset="0.1" style="stop-color:#FED51B"/>
	<stop  offset="0.17" style="stop-color:#FDCA10"/>
	<stop  offset="0.25" style="stop-color:#FDC70C"/>
	<stop  offset="0.5" style="stop-color:#F3903F"/>
	<stop  offset="0.75" style="stop-color:#ED683C"/>
	<stop  offset="1" style="stop-color:#E93E3A"/>
</linearGradient>
<rect x="748.1" y="124.1" class="st17" width="12.5" height="12.5"/>
<linearGradient id="SVGID_7_" gradientUnits="userSpaceOnUse" x1="685.5409" y1="103.1814" x2="796.4509" y2="33.0714" gradientTransform="matrix(1 0 0 -1 0 180)">
	<stop  offset="0" style="stop-color:#FFF33B"/>
	<stop  offset="4.000000e-02" style="stop-color:#FEE72E"/>
	<stop  offset="0.1" style="stop-color:#FED51B"/>
	<stop  offset="0.17" style="stop-color:#FDCA10"/>
	<stop  offset="0.25" style="stop-color:#FDC70C"/>
	<stop  offset="0.5" style="stop-color:#F3903F"/>
	<stop  offset="0.75" style="stop-color:#ED683C"/>
	<stop  offset="1" style="stop-color:#E93E3A"/>
</linearGradient>
<rect x="763.5" y="123.8" class="st18" width="12.5" height="12.5"/>
<linearGradient id="SVGID_8_" gradientUnits="userSpaceOnUse" x1="689.9537" y1="110.1458" x2="800.8636" y2="40.0358" gradientTransform="matrix(1 0 0 -1 0 180)">
	<stop  offset="0" style="stop-color:#FFF33B"/>
	<stop  offset="4.000000e-02" style="stop-color:#FEE72E"/>
	<stop  offset="0.1" style="stop-color:#FED51B"/>
	<stop  offset="0.17" style="stop-color:#FDCA10"/>
	<stop  offset="0.25" style="stop-color:#FDC70C"/>
	<stop  offset="0.5" style="stop-color:#F3903F"/>
	<stop  offset="0.75" style="stop-color:#ED683C"/>
	<stop  offset="1" style="stop-color:#E93E3A"/>
</linearGradient>
<rect x="778.9" y="123.8" class="st19" width="12.5" height="12.5"/>
<linearGradient id="SVGID_9_" gradientUnits="userSpaceOnUse" x1="652.1489" y1="50.4783" x2="763.0489" y2="-19.6417" gradientTransform="matrix(1 0 0 -1 0 180)">
	<stop  offset="0" style="stop-color:#FFF33B"/>
	<stop  offset="4.000000e-02" style="stop-color:#FEE72E"/>
	<stop  offset="0.1" style="stop-color:#FED51B"/>
	<stop  offset="0.17" style="stop-color:#FDCA10"/>
	<stop  offset="0.25" style="stop-color:#FDC70C"/>
	<stop  offset="0.5" style="stop-color:#F3903F"/>
	<stop  offset="0.75" style="stop-color:#ED683C"/>
	<stop  offset="1" style="stop-color:#E93E3A"/>
</linearGradient>
<rect x="671" y="139.1" class="st20" width="12.5" height="12.5"/>
<linearGradient id="SVGID_10_" gradientUnits="userSpaceOnUse" x1="656.5596" y1="57.4393" x2="767.4596" y2="-12.6807" gradientTransform="matrix(1 0 0 -1 0 180)">
	<stop  offset="0" style="stop-color:#FFF33B"/>
	<stop  offset="4.000000e-02" style="stop-color:#FEE72E"/>
	<stop  offset="0.1" style="stop-color:#FED51B"/>
	<stop  offset="0.17" style="stop-color:#FDCA10"/>
	<stop  offset="0.25" style="stop-color:#FDC70C"/>
	<stop  offset="0.5" style="stop-color:#F3903F"/>
	<stop  offset="0.75" style="stop-color:#ED683C"/>
	<stop  offset="1" style="stop-color:#E93E3A"/>
</linearGradient>
<rect x="686.4" y="139.1" class="st21" width="12.5" height="12.5"/>
<linearGradient id="SVGID_11_" gradientUnits="userSpaceOnUse" x1="660.969" y1="64.3984" x2="771.879" y2="-5.7216" gradientTransform="matrix(1 0 0 -1 0 180)">
	<stop  offset="0" style="stop-color:#FFF33B"/>
	<stop  offset="4.000000e-02" style="stop-color:#FEE72E"/>
	<stop  offset="0.1" style="stop-color:#FED51B"/>
	<stop  offset="0.17" style="stop-color:#FDCA10"/>
	<stop  offset="0.25" style="stop-color:#FDC70C"/>
	<stop  offset="0.5" style="stop-color:#F3903F"/>
	<stop  offset="0.75" style="stop-color:#ED683C"/>
	<stop  offset="1" style="stop-color:#E93E3A"/>
</linearGradient>
<rect x="701.8" y="139.1" class="st22" width="12.5" height="12.5"/>
<linearGradient id="SVGID_12_" gradientUnits="userSpaceOnUse" x1="665.3793" y1="71.359" x2="776.2893" y2="1.239" gradientTransform="matrix(1 0 0 -1 0 180)">
	<stop  offset="0" style="stop-color:#FFF33B"/>
	<stop  offset="4.000000e-02" style="stop-color:#FEE72E"/>
	<stop  offset="0.1" style="stop-color:#FED51B"/>
	<stop  offset="0.17" style="stop-color:#FDCA10"/>
	<stop  offset="0.25" style="stop-color:#FDC70C"/>
	<stop  offset="0.5" style="stop-color:#F3903F"/>
	<stop  offset="0.75" style="stop-color:#ED683C"/>
	<stop  offset="1" style="stop-color:#E93E3A"/>
</linearGradient>
<rect x="717.2" y="139.1" class="st23" width="12.5" height="12.5"/>
<linearGradient id="SVGID_13_" gradientUnits="userSpaceOnUse" x1="669.7897" y1="78.3195" x2="780.6997" y2="8.1995" gradientTransform="matrix(1 0 0 -1 0 180)">
	<stop  offset="0" style="stop-color:#FFF33B"/>
	<stop  offset="4.000000e-02" style="stop-color:#FEE72E"/>
	<stop  offset="0.1" style="stop-color:#FED51B"/>
	<stop  offset="0.17" style="stop-color:#FDCA10"/>
	<stop  offset="0.25" style="stop-color:#FDC70C"/>
	<stop  offset="0.5" style="stop-color:#F3903F"/>
	<stop  offset="0.75" style="stop-color:#ED683C"/>
	<stop  offset="1" style="stop-color:#E93E3A"/>
</linearGradient>
<rect x="732.7" y="139.1" class="st24" width="12.5" height="12.5"/>
<linearGradient id="SVGID_14_" gradientUnits="userSpaceOnUse" x1="674.2001" y1="85.2801" x2="785.11" y2="15.1601" gradientTransform="matrix(1 0 0 -1 0 180)">
	<stop  offset="0" style="stop-color:#FFF33B"/>
	<stop  offset="4.000000e-02" style="stop-color:#FEE72E"/>
	<stop  offset="0.1" style="stop-color:#FED51B"/>
	<stop  offset="0.17" style="stop-color:#FDCA10"/>
	<stop  offset="0.25" style="stop-color:#FDC70C"/>
	<stop  offset="0.5" style="stop-color:#F3903F"/>
	<stop  offset="0.75" style="stop-color:#ED683C"/>
	<stop  offset="1" style="stop-color:#E93E3A"/>
</linearGradient>
<rect x="748.1" y="139.1" class="st25" width="12.5" height="12.5"/>
<linearGradient id="SVGID_15_" gradientUnits="userSpaceOnUse" x1="678.759" y1="92.4685" x2="789.669" y2="22.3585" gradientTransform="matrix(1 0 0 -1 0 180)">
	<stop  offset="0" style="stop-color:#FFF33B"/>
	<stop  offset="4.000000e-02" style="stop-color:#FEE72E"/>
	<stop  offset="0.1" style="stop-color:#FED51B"/>
	<stop  offset="0.17" style="stop-color:#FDCA10"/>
	<stop  offset="0.25" style="stop-color:#FDC70C"/>
	<stop  offset="0.5" style="stop-color:#F3903F"/>
	<stop  offset="0.75" style="stop-color:#ED683C"/>
	<stop  offset="1" style="stop-color:#E93E3A"/>
</linearGradient>
<rect x="763.5" y="138.8" class="st26" width="12.5" height="12.5"/>
<linearGradient id="SVGID_16_" gradientUnits="userSpaceOnUse" x1="683.1718" y1="99.4328" x2="794.0818" y2="29.3229" gradientTransform="matrix(1 0 0 -1 0 180)">
	<stop  offset="0" style="stop-color:#FFF33B"/>
	<stop  offset="4.000000e-02" style="stop-color:#FEE72E"/>
	<stop  offset="0.1" style="stop-color:#FED51B"/>
	<stop  offset="0.17" style="stop-color:#FDCA10"/>
	<stop  offset="0.25" style="stop-color:#FDC70C"/>
	<stop  offset="0.5" style="stop-color:#F3903F"/>
	<stop  offset="0.75" style="stop-color:#ED683C"/>
	<stop  offset="1" style="stop-color:#E93E3A"/>
</linearGradient>
<rect x="778.9" y="138.8" class="st27" width="12.5" height="12.5"/>
<linearGradient id="SVGID_17_" gradientUnits="userSpaceOnUse" x1="687.7295" y1="106.6193" x2="798.6395" y2="36.5093" gradientTransform="matrix(1 0 0 -1 0 180)">
	<stop  offset="0" style="stop-color:#FFF33B"/>
	<stop  offset="4.000000e-02" style="stop-color:#FEE72E"/>
	<stop  offset="0.1" style="stop-color:#FED51B"/>
	<stop  offset="0.17" style="stop-color:#FDCA10"/>
	<stop  offset="0.25" style="stop-color:#FDC70C"/>
	<stop  offset="0.5" style="stop-color:#F3903F"/>
	<stop  offset="0.75" style="stop-color:#ED683C"/>
	<stop  offset="1" style="stop-color:#E93E3A"/>
</linearGradient>
<rect x="794.3" y="138.5" class="st28" width="12.5" height="12.5"/>
<linearGradient id="SVGID_18_" gradientUnits="userSpaceOnUse" x1="665.711" y1="71.9016" x2="776.621" y2="1.7915" gradientTransform="matrix(1 0 0 -1 0 180)">
	<stop  offset="0" style="stop-color:#FFF33B"/>
	<stop  offset="4.000000e-02" style="stop-color:#FEE72E"/>
	<stop  offset="0.1" style="stop-color:#FED51B"/>
	<stop  offset="0.17" style="stop-color:#FDCA10"/>
	<stop  offset="0.25" style="stop-color:#FDC70C"/>
	<stop  offset="0.5" style="stop-color:#F3903F"/>
	<stop  offset="0.75" style="stop-color:#ED683C"/>
	<stop  offset="1" style="stop-color:#E93E3A"/>
</linearGradient>
<rect x="671" y="109.1" class="st29" width="12.5" height="12.5"/>
<linearGradient id="SVGID_19_" gradientUnits="userSpaceOnUse" x1="670.1209" y1="78.8614" x2="781.0309" y2="8.7514" gradientTransform="matrix(1 0 0 -1 0 180)">
	<stop  offset="0" style="stop-color:#FFF33B"/>
	<stop  offset="4.000000e-02" style="stop-color:#FEE72E"/>
	<stop  offset="0.1" style="stop-color:#FED51B"/>
	<stop  offset="0.17" style="stop-color:#FDCA10"/>
	<stop  offset="0.25" style="stop-color:#FDC70C"/>
	<stop  offset="0.5" style="stop-color:#F3903F"/>
	<stop  offset="0.75" style="stop-color:#ED683C"/>
	<stop  offset="1" style="stop-color:#E93E3A"/>
</linearGradient>
<rect x="686.4" y="109.1" class="st30" width="12.5" height="12.5"/>
<linearGradient id="SVGID_20_" gradientUnits="userSpaceOnUse" x1="674.5308" y1="85.8213" x2="785.4408" y2="15.7113" gradientTransform="matrix(1 0 0 -1 0 180)">
	<stop  offset="0" style="stop-color:#FFF33B"/>
	<stop  offset="4.000000e-02" style="stop-color:#FEE72E"/>
	<stop  offset="0.1" style="stop-color:#FED51B"/>
	<stop  offset="0.17" style="stop-color:#FDCA10"/>
	<stop  offset="0.25" style="stop-color:#FDC70C"/>
	<stop  offset="0.5" style="stop-color:#F3903F"/>
	<stop  offset="0.75" style="stop-color:#ED683C"/>
	<stop  offset="1" style="stop-color:#E93E3A"/>
</linearGradient>
<rect x="701.8" y="109.1" class="st31" width="12.5" height="12.5"/>
<linearGradient id="SVGID_21_" gradientUnits="userSpaceOnUse" x1="678.9407" y1="92.7811" x2="789.8507" y2="22.6711" gradientTransform="matrix(1 0 0 -1 0 180)">
	<stop  offset="0" style="stop-color:#FFF33B"/>
	<stop  offset="4.000000e-02" style="stop-color:#FEE72E"/>
	<stop  offset="0.1" style="stop-color:#FED51B"/>
	<stop  offset="0.17" style="stop-color:#FDCA10"/>
	<stop  offset="0.25" style="stop-color:#FDC70C"/>
	<stop  offset="0.5" style="stop-color:#F3903F"/>
	<stop  offset="0.75" style="stop-color:#ED683C"/>
	<stop  offset="1" style="stop-color:#E93E3A"/>
</linearGradient>
<rect x="717.2" y="109.1" class="st32" width="12.5" height="12.5"/>
<linearGradient id="SVGID_22_" gradientUnits="userSpaceOnUse" x1="683.3592" y1="99.7387" x2="794.2592" y2="29.6287" gradientTransform="matrix(1 0 0 -1 0 180)">
	<stop  offset="0" style="stop-color:#FFF33B"/>
	<stop  offset="4.000000e-02" style="stop-color:#FEE72E"/>
	<stop  offset="0.1" style="stop-color:#FED51B"/>
	<stop  offset="0.17" style="stop-color:#FDCA10"/>
	<stop  offset="0.25" style="stop-color:#FDC70C"/>
	<stop  offset="0.5" style="stop-color:#F3903F"/>
	<stop  offset="0.75" style="stop-color:#ED683C"/>
	<stop  offset="1" style="stop-color:#E93E3A"/>
</linearGradient>
<rect x="732.7" y="109.1" class="st33" width="12.5" height="12.5"/>
<linearGradient id="SVGID_23_" gradientUnits="userSpaceOnUse" x1="672.4929" y1="82.6145" x2="783.4029" y2="12.5045" gradientTransform="matrix(1 0 0 -1 0 180)">
	<stop  offset="0" style="stop-color:#FFF33B"/>
	<stop  offset="4.000000e-02" style="stop-color:#FEE72E"/>
	<stop  offset="0.1" style="stop-color:#FED51B"/>
	<stop  offset="0.17" style="stop-color:#FDCA10"/>
	<stop  offset="0.25" style="stop-color:#FDC70C"/>
	<stop  offset="0.5" style="stop-color:#F3903F"/>
	<stop  offset="0.75" style="stop-color:#ED683C"/>
	<stop  offset="1" style="stop-color:#E93E3A"/>
</linearGradient>
<rect x="671" y="94.1" class="st34" width="12.5" height="12.5"/>
<linearGradient id="SVGID_24_" gradientUnits="userSpaceOnUse" x1="676.9103" y1="89.5705" x2="787.8103" y2="19.4605" gradientTransform="matrix(1 0 0 -1 0 180)">
	<stop  offset="0" style="stop-color:#FFF33B"/>
	<stop  offset="4.000000e-02" style="stop-color:#FEE72E"/>
	<stop  offset="0.1" style="stop-color:#FED51B"/>
	<stop  offset="0.17" style="stop-color:#FDCA10"/>
	<stop  offset="0.25" style="stop-color:#FDC70C"/>
	<stop  offset="0.5" style="stop-color:#F3903F"/>
	<stop  offset="0.75" style="stop-color:#ED683C"/>
	<stop  offset="1" style="stop-color:#E93E3A"/>
</linearGradient>
<rect x="686.4" y="94.1" class="st35" width="12.5" height="12.5"/>
<linearGradient id="SVGID_25_" gradientUnits="userSpaceOnUse" x1="649.7727" y1="46.7242" x2="760.6827" y2="-23.3858" gradientTransform="matrix(1 0 0 -1 0 180)">
	<stop  offset="0" style="stop-color:#FFF33B"/>
	<stop  offset="4.000000e-02" style="stop-color:#FEE72E"/>
	<stop  offset="0.1" style="stop-color:#FED51B"/>
	<stop  offset="0.17" style="stop-color:#FDCA10"/>
	<stop  offset="0.25" style="stop-color:#FDC70C"/>
	<stop  offset="0.5" style="stop-color:#F3903F"/>
	<stop  offset="0.75" style="stop-color:#ED683C"/>
	<stop  offset="1" style="stop-color:#E93E3A"/>
</linearGradient>
<rect x="686.4" y="154.1" class="st36" width="12.5" height="12.5"/>
<linearGradient id="SVGID_26_" gradientUnits="userSpaceOnUse" x1="654.1911" y1="53.6817" x2="765.0911" y2="-16.4282" gradientTransform="matrix(1 0 0 -1 0 180)">
	<stop  offset="0" style="stop-color:#FFF33B"/>
	<stop  offset="4.000000e-02" style="stop-color:#FEE72E"/>
	<stop  offset="0.1" style="stop-color:#FED51B"/>
	<stop  offset="0.17" style="stop-color:#FDCA10"/>
	<stop  offset="0.25" style="stop-color:#FDC70C"/>
	<stop  offset="0.5" style="stop-color:#F3903F"/>
	<stop  offset="0.75" style="stop-color:#ED683C"/>
	<stop  offset="1" style="stop-color:#E93E3A"/>
</linearGradient>
<rect x="701.8" y="154.1" class="st37" width="12.5" height="12.5"/>
<linearGradient id="SVGID_27_" gradientUnits="userSpaceOnUse" x1="658.6013" y1="60.6421" x2="769.5013" y2="-9.4679" gradientTransform="matrix(1 0 0 -1 0 180)">
	<stop  offset="0" style="stop-color:#FFF33B"/>
	<stop  offset="4.000000e-02" style="stop-color:#FEE72E"/>
	<stop  offset="0.1" style="stop-color:#FED51B"/>
	<stop  offset="0.17" style="stop-color:#FDCA10"/>
	<stop  offset="0.25" style="stop-color:#FDC70C"/>
	<stop  offset="0.5" style="stop-color:#F3903F"/>
	<stop  offset="0.75" style="stop-color:#ED683C"/>
	<stop  offset="1" style="stop-color:#E93E3A"/>
</linearGradient>
<rect x="717.2" y="154.1" class="st38" width="12.5" height="12.5"/>
<linearGradient id="SVGID_28_" gradientUnits="userSpaceOnUse" x1="663.0095" y1="67.5993" x2="773.9195" y2="-2.5107" gradientTransform="matrix(1 0 0 -1 0 180)">
	<stop  offset="0" style="stop-color:#FFF33B"/>
	<stop  offset="4.000000e-02" style="stop-color:#FEE72E"/>
	<stop  offset="0.1" style="stop-color:#FED51B"/>
	<stop  offset="0.17" style="stop-color:#FDCA10"/>
	<stop  offset="0.25" style="stop-color:#FDC70C"/>
	<stop  offset="0.5" style="stop-color:#F3903F"/>
	<stop  offset="0.75" style="stop-color:#ED683C"/>
	<stop  offset="1" style="stop-color:#E93E3A"/>
</linearGradient>
<rect x="732.7" y="154.1" class="st39" width="12.5" height="12.5"/>
<linearGradient id="SVGID_29_" gradientUnits="userSpaceOnUse" x1="692.1602" y1="113.6103" x2="803.0702" y2="43.5003" gradientTransform="matrix(1 0 0 -1 0 180)">
	<stop  offset="0" style="stop-color:#FFF33B"/>
	<stop  offset="4.000000e-02" style="stop-color:#FEE72E"/>
	<stop  offset="0.1" style="stop-color:#FED51B"/>
	<stop  offset="0.17" style="stop-color:#FDCA10"/>
	<stop  offset="0.25" style="stop-color:#FDC70C"/>
	<stop  offset="0.5" style="stop-color:#F3903F"/>
	<stop  offset="0.75" style="stop-color:#ED683C"/>
	<stop  offset="1" style="stop-color:#E93E3A"/>
</linearGradient>
<rect x="809.8" y="138.5" class="st40" width="12.5" height="12.5"/>
<linearGradient id="SVGID_30_" gradientUnits="userSpaceOnUse" x1="1069.7041" y1="139.2265" x2="1180.6041" y2="69.1165" gradientTransform="matrix(1 0 0 -1 0 180)">
	<stop  offset="0" style="stop-color:#FFF33B"/>
	<stop  offset="4.000000e-02" style="stop-color:#FEE72E"/>
	<stop  offset="0.1" style="stop-color:#FED51B"/>
	<stop  offset="0.17" style="stop-color:#FDCA10"/>
	<stop  offset="0.25" style="stop-color:#FDC70C"/>
	<stop  offset="0.5" style="stop-color:#F3903F"/>
	<stop  offset="0.75" style="stop-color:#ED683C"/>
	<stop  offset="1" style="stop-color:#E93E3A"/>
</linearGradient>
<rect x="1081.8" y="46.1" class="st41" width="12.5" height="12.5"/>
<linearGradient id="SVGID_31_" gradientUnits="userSpaceOnUse" x1="1074.1135" y1="146.1856" x2="1185.0236" y2="76.0756" gradientTransform="matrix(1 0 0 -1 0 180)">
	<stop  offset="0" style="stop-color:#FFF33B"/>
	<stop  offset="4.000000e-02" style="stop-color:#FEE72E"/>
	<stop  offset="0.1" style="stop-color:#FED51B"/>
	<stop  offset="0.17" style="stop-color:#FDCA10"/>
	<stop  offset="0.25" style="stop-color:#FDC70C"/>
	<stop  offset="0.5" style="stop-color:#F3903F"/>
	<stop  offset="0.75" style="stop-color:#ED683C"/>
	<stop  offset="1" style="stop-color:#E93E3A"/>
</linearGradient>
<rect x="1097.2" y="46.1" class="st42" width="12.5" height="12.5"/>
<linearGradient id="SVGID_32_" gradientUnits="userSpaceOnUse" x1="1078.5206" y1="153.1509" x2="1189.4307" y2="83.0309" gradientTransform="matrix(1 0 0 -1 0 180)">
	<stop  offset="0" style="stop-color:#FFF33B"/>
	<stop  offset="4.000000e-02" style="stop-color:#FEE72E"/>
	<stop  offset="0.1" style="stop-color:#FED51B"/>
	<stop  offset="0.17" style="stop-color:#FDCA10"/>
	<stop  offset="0.25" style="stop-color:#FDC70C"/>
	<stop  offset="0.5" style="stop-color:#F3903F"/>
	<stop  offset="0.75" style="stop-color:#ED683C"/>
	<stop  offset="1" style="stop-color:#E93E3A"/>
</linearGradient>
<rect x="1112.6" y="46.1" class="st43" width="12.5" height="12.5"/>
<linearGradient id="SVGID_33_" gradientUnits="userSpaceOnUse" x1="1082.931" y1="160.1115" x2="1193.8409" y2="89.9915" gradientTransform="matrix(1 0 0 -1 0 180)">
	<stop  offset="0" style="stop-color:#FFF33B"/>
	<stop  offset="4.000000e-02" style="stop-color:#FEE72E"/>
	<stop  offset="0.1" style="stop-color:#FED51B"/>
	<stop  offset="0.17" style="stop-color:#FDCA10"/>
	<stop  offset="0.25" style="stop-color:#FDC70C"/>
	<stop  offset="0.5" style="stop-color:#F3903F"/>
	<stop  offset="0.75" style="stop-color:#ED683C"/>
	<stop  offset="1" style="stop-color:#E93E3A"/>
</linearGradient>
<rect x="1128" y="46.1" class="st44" width="12.5" height="12.5"/>
<linearGradient id="SVGID_34_" gradientUnits="userSpaceOnUse" x1="1087.3413" y1="167.0721" x2="1198.2513" y2="96.9521" gradientTransform="matrix(1 0 0 -1 0 180)">
	<stop  offset="0" style="stop-color:#FFF33B"/>
	<stop  offset="4.000000e-02" style="stop-color:#FEE72E"/>
	<stop  offset="0.1" style="stop-color:#FED51B"/>
	<stop  offset="0.17" style="stop-color:#FDCA10"/>
	<stop  offset="0.25" style="stop-color:#FDC70C"/>
	<stop  offset="0.5" style="stop-color:#F3903F"/>
	<stop  offset="0.75" style="stop-color:#ED683C"/>
	<stop  offset="1" style="stop-color:#E93E3A"/>
</linearGradient>
<rect x="1143.4" y="46.1" class="st45" width="12.5" height="12.5"/>
<linearGradient id="SVGID_35_" gradientUnits="userSpaceOnUse" x1="1091.7516" y1="174.0326" x2="1202.6616" y2="103.9126" gradientTransform="matrix(1 0 0 -1 0 180)">
	<stop  offset="0" style="stop-color:#FFF33B"/>
	<stop  offset="4.000000e-02" style="stop-color:#FEE72E"/>
	<stop  offset="0.1" style="stop-color:#FED51B"/>
	<stop  offset="0.17" style="stop-color:#FDCA10"/>
	<stop  offset="0.25" style="stop-color:#FDC70C"/>
	<stop  offset="0.5" style="stop-color:#F3903F"/>
	<stop  offset="0.75" style="stop-color:#ED683C"/>
	<stop  offset="1" style="stop-color:#E93E3A"/>
</linearGradient>
<rect x="1158.8" y="46.1" class="st46" width="12.5" height="12.5"/>
<linearGradient id="SVGID_36_" gradientUnits="userSpaceOnUse" x1="1096.3065" y1="181.2143" x2="1207.2164" y2="111.1043" gradientTransform="matrix(1 0 0 -1 0 180)">
	<stop  offset="0" style="stop-color:#FFF33B"/>
	<stop  offset="4.000000e-02" style="stop-color:#FEE72E"/>
	<stop  offset="0.1" style="stop-color:#FED51B"/>
	<stop  offset="0.17" style="stop-color:#FDCA10"/>
	<stop  offset="0.25" style="stop-color:#FDC70C"/>
	<stop  offset="0.5" style="stop-color:#F3903F"/>
	<stop  offset="0.75" style="stop-color:#ED683C"/>
	<stop  offset="1" style="stop-color:#E93E3A"/>
</linearGradient>
<rect x="1174.3" y="45.8" class="st47" width="12.5" height="12.5"/>
<linearGradient id="SVGID_37_" gradientUnits="userSpaceOnUse" x1="1100.7163" y1="188.1741" x2="1211.6263" y2="118.0641" gradientTransform="matrix(1 0 0 -1 0 180)">
	<stop  offset="0" style="stop-color:#FFF33B"/>
	<stop  offset="4.000000e-02" style="stop-color:#FEE72E"/>
	<stop  offset="0.1" style="stop-color:#FED51B"/>
	<stop  offset="0.17" style="stop-color:#FDCA10"/>
	<stop  offset="0.25" style="stop-color:#FDC70C"/>
	<stop  offset="0.5" style="stop-color:#F3903F"/>
	<stop  offset="0.75" style="stop-color:#ED683C"/>
	<stop  offset="1" style="stop-color:#E93E3A"/>
</linearGradient>
<rect x="1189.7" y="45.8" class="st48" width="12.5" height="12.5"/>
<linearGradient id="SVGID_38_" gradientUnits="userSpaceOnUse" x1="1062.9147" y1="128.5173" x2="1173.8246" y2="58.4073" gradientTransform="matrix(1 0 0 -1 0 180)">
	<stop  offset="0" style="stop-color:#FFF33B"/>
	<stop  offset="4.000000e-02" style="stop-color:#FEE72E"/>
	<stop  offset="0.1" style="stop-color:#FED51B"/>
	<stop  offset="0.17" style="stop-color:#FDCA10"/>
	<stop  offset="0.25" style="stop-color:#FDC70C"/>
	<stop  offset="0.5" style="stop-color:#F3903F"/>
	<stop  offset="0.75" style="stop-color:#ED683C"/>
	<stop  offset="1" style="stop-color:#E93E3A"/>
</linearGradient>
<rect x="1081.8" y="61.1" class="st49" width="12.5" height="12.5"/>
<linearGradient id="SVGID_39_" gradientUnits="userSpaceOnUse" x1="1067.3326" y1="135.4742" x2="1178.2327" y2="65.3642" gradientTransform="matrix(1 0 0 -1 0 180)">
	<stop  offset="0" style="stop-color:#FFF33B"/>
	<stop  offset="4.000000e-02" style="stop-color:#FEE72E"/>
	<stop  offset="0.1" style="stop-color:#FED51B"/>
	<stop  offset="0.17" style="stop-color:#FDCA10"/>
	<stop  offset="0.25" style="stop-color:#FDC70C"/>
	<stop  offset="0.5" style="stop-color:#F3903F"/>
	<stop  offset="0.75" style="stop-color:#ED683C"/>
	<stop  offset="1" style="stop-color:#E93E3A"/>
</linearGradient>
<rect x="1097.2" y="61.1" class="st50" width="12.5" height="12.5"/>
<linearGradient id="SVGID_40_" gradientUnits="userSpaceOnUse" x1="1071.7428" y1="142.4344" x2="1182.6428" y2="72.3244" gradientTransform="matrix(1 0 0 -1 0 180)">
	<stop  offset="0" style="stop-color:#FFF33B"/>
	<stop  offset="4.000000e-02" style="stop-color:#FEE72E"/>
	<stop  offset="0.1" style="stop-color:#FED51B"/>
	<stop  offset="0.17" style="stop-color:#FDCA10"/>
	<stop  offset="0.25" style="stop-color:#FDC70C"/>
	<stop  offset="0.5" style="stop-color:#F3903F"/>
	<stop  offset="0.75" style="stop-color:#ED683C"/>
	<stop  offset="1" style="stop-color:#E93E3A"/>
</linearGradient>
<rect x="1112.6" y="61.1" class="st51" width="12.5" height="12.5"/>
<linearGradient id="SVGID_41_" gradientUnits="userSpaceOnUse" x1="1076.1515" y1="149.3923" x2="1187.0615" y2="79.2823" gradientTransform="matrix(1 0 0 -1 0 180)">
	<stop  offset="0" style="stop-color:#FFF33B"/>
	<stop  offset="4.000000e-02" style="stop-color:#FEE72E"/>
	<stop  offset="0.1" style="stop-color:#FED51B"/>
	<stop  offset="0.17" style="stop-color:#FDCA10"/>
	<stop  offset="0.25" style="stop-color:#FDC70C"/>
	<stop  offset="0.5" style="stop-color:#F3903F"/>
	<stop  offset="0.75" style="stop-color:#ED683C"/>
	<stop  offset="1" style="stop-color:#E93E3A"/>
</linearGradient>
<rect x="1128" y="61.1" class="st52" width="12.5" height="12.5"/>
<linearGradient id="SVGID_42_" gradientUnits="userSpaceOnUse" x1="1080.5615" y1="156.3522" x2="1191.4714" y2="86.2422" gradientTransform="matrix(1 0 0 -1 0 180)">
	<stop  offset="0" style="stop-color:#FFF33B"/>
	<stop  offset="4.000000e-02" style="stop-color:#FEE72E"/>
	<stop  offset="0.1" style="stop-color:#FED51B"/>
	<stop  offset="0.17" style="stop-color:#FDCA10"/>
	<stop  offset="0.25" style="stop-color:#FDC70C"/>
	<stop  offset="0.5" style="stop-color:#F3903F"/>
	<stop  offset="0.75" style="stop-color:#ED683C"/>
	<stop  offset="1" style="stop-color:#E93E3A"/>
</linearGradient>
<rect x="1143.4" y="61.1" class="st53" width="12.5" height="12.5"/>
<linearGradient id="SVGID_43_" gradientUnits="userSpaceOnUse" x1="1084.9713" y1="163.3121" x2="1195.8813" y2="93.2021" gradientTransform="matrix(1 0 0 -1 0 180)">
	<stop  offset="0" style="stop-color:#FFF33B"/>
	<stop  offset="4.000000e-02" style="stop-color:#FEE72E"/>
	<stop  offset="0.1" style="stop-color:#FED51B"/>
	<stop  offset="0.17" style="stop-color:#FDCA10"/>
	<stop  offset="0.25" style="stop-color:#FDC70C"/>
	<stop  offset="0.5" style="stop-color:#F3903F"/>
	<stop  offset="0.75" style="stop-color:#ED683C"/>
	<stop  offset="1" style="stop-color:#E93E3A"/>
</linearGradient>
<rect x="1158.8" y="61.1" class="st54" width="12.5" height="12.5"/>
<linearGradient id="SVGID_44_" gradientUnits="userSpaceOnUse" x1="1089.5283" y1="170.5072" x2="1200.4382" y2="100.3872" gradientTransform="matrix(1 0 0 -1 0 180)">
	<stop  offset="0" style="stop-color:#FFF33B"/>
	<stop  offset="4.000000e-02" style="stop-color:#FEE72E"/>
	<stop  offset="0.1" style="stop-color:#FED51B"/>
	<stop  offset="0.17" style="stop-color:#FDCA10"/>
	<stop  offset="0.25" style="stop-color:#FDC70C"/>
	<stop  offset="0.5" style="stop-color:#F3903F"/>
	<stop  offset="0.75" style="stop-color:#ED683C"/>
	<stop  offset="1" style="stop-color:#E93E3A"/>
</linearGradient>
<rect x="1174.3" y="60.8" class="st55" width="12.5" height="12.5"/>
<linearGradient id="SVGID_45_" gradientUnits="userSpaceOnUse" x1="1093.9385" y1="177.4678" x2="1204.8485" y2="107.3478" gradientTransform="matrix(1 0 0 -1 0 180)">
	<stop  offset="0" style="stop-color:#FFF33B"/>
	<stop  offset="4.000000e-02" style="stop-color:#FEE72E"/>
	<stop  offset="0.1" style="stop-color:#FED51B"/>
	<stop  offset="0.17" style="stop-color:#FDCA10"/>
	<stop  offset="0.25" style="stop-color:#FDC70C"/>
	<stop  offset="0.5" style="stop-color:#F3903F"/>
	<stop  offset="0.75" style="stop-color:#ED683C"/>
	<stop  offset="1" style="stop-color:#E93E3A"/>
</linearGradient>
<rect x="1189.7" y="60.8" class="st56" width="12.5" height="12.5"/>
<linearGradient id="SVGID_46_" gradientUnits="userSpaceOnUse" x1="1098.4995" y1="184.6593" x2="1209.4095" y2="114.5492" gradientTransform="matrix(1 0 0 -1 0 180)">
	<stop  offset="0" style="stop-color:#FFF33B"/>
	<stop  offset="4.000000e-02" style="stop-color:#FEE72E"/>
	<stop  offset="0.1" style="stop-color:#FED51B"/>
	<stop  offset="0.17" style="stop-color:#FDCA10"/>
	<stop  offset="0.25" style="stop-color:#FDC70C"/>
	<stop  offset="0.5" style="stop-color:#F3903F"/>
	<stop  offset="0.75" style="stop-color:#ED683C"/>
	<stop  offset="1" style="stop-color:#E93E3A"/>
</linearGradient>
<rect x="1205.1" y="60.4" class="st57" width="12.5" height="12.5"/>
<linearGradient id="SVGID_47_" gradientUnits="userSpaceOnUse" x1="1076.4814" y1="149.9423" x2="1187.3915" y2="79.8223" gradientTransform="matrix(1 0 0 -1 0 180)">
	<stop  offset="0" style="stop-color:#FFF33B"/>
	<stop  offset="4.000000e-02" style="stop-color:#FEE72E"/>
	<stop  offset="0.1" style="stop-color:#FED51B"/>
	<stop  offset="0.17" style="stop-color:#FDCA10"/>
	<stop  offset="0.25" style="stop-color:#FDC70C"/>
	<stop  offset="0.5" style="stop-color:#F3903F"/>
	<stop  offset="0.75" style="stop-color:#ED683C"/>
	<stop  offset="1" style="stop-color:#E93E3A"/>
</linearGradient>
<rect x="1081.8" y="31.1" class="st58" width="12.5" height="12.5"/>
<linearGradient id="SVGID_48_" gradientUnits="userSpaceOnUse" x1="1080.8918" y1="156.9029" x2="1191.8019" y2="86.7829" gradientTransform="matrix(1 0 0 -1 0 180)">
	<stop  offset="0" style="stop-color:#FFF33B"/>
	<stop  offset="4.000000e-02" style="stop-color:#FEE72E"/>
	<stop  offset="0.1" style="stop-color:#FED51B"/>
	<stop  offset="0.17" style="stop-color:#FDCA10"/>
	<stop  offset="0.25" style="stop-color:#FDC70C"/>
	<stop  offset="0.5" style="stop-color:#F3903F"/>
	<stop  offset="0.75" style="stop-color:#ED683C"/>
	<stop  offset="1" style="stop-color:#E93E3A"/>
</linearGradient>
<rect x="1097.2" y="31.1" class="st59" width="12.5" height="12.5"/>
<linearGradient id="SVGID_49_" gradientUnits="userSpaceOnUse" x1="1085.3022" y1="163.8634" x2="1196.2122" y2="93.7434" gradientTransform="matrix(1 0 0 -1 0 180)">
	<stop  offset="0" style="stop-color:#FFF33B"/>
	<stop  offset="4.000000e-02" style="stop-color:#FEE72E"/>
	<stop  offset="0.1" style="stop-color:#FED51B"/>
	<stop  offset="0.17" style="stop-color:#FDCA10"/>
	<stop  offset="0.25" style="stop-color:#FDC70C"/>
	<stop  offset="0.5" style="stop-color:#F3903F"/>
	<stop  offset="0.75" style="stop-color:#ED683C"/>
	<stop  offset="1" style="stop-color:#E93E3A"/>
</linearGradient>
<rect x="1112.6" y="31.1" class="st60" width="12.5" height="12.5"/>
<linearGradient id="SVGID_50_" gradientUnits="userSpaceOnUse" x1="1089.7107" y1="170.8211" x2="1200.6207" y2="100.7111" gradientTransform="matrix(1 0 0 -1 0 180)">
	<stop  offset="0" style="stop-color:#FFF33B"/>
	<stop  offset="4.000000e-02" style="stop-color:#FEE72E"/>
	<stop  offset="0.1" style="stop-color:#FED51B"/>
	<stop  offset="0.17" style="stop-color:#FDCA10"/>
	<stop  offset="0.25" style="stop-color:#FDC70C"/>
	<stop  offset="0.5" style="stop-color:#F3903F"/>
	<stop  offset="0.75" style="stop-color:#ED683C"/>
	<stop  offset="1" style="stop-color:#E93E3A"/>
</linearGradient>
<rect x="1128" y="31.1" class="st61" width="12.5" height="12.5"/>
<linearGradient id="SVGID_51_" gradientUnits="userSpaceOnUse" x1="1094.1206" y1="177.781" x2="1205.0306" y2="107.671" gradientTransform="matrix(1 0 0 -1 0 180)">
	<stop  offset="0" style="stop-color:#FFF33B"/>
	<stop  offset="4.000000e-02" style="stop-color:#FEE72E"/>
	<stop  offset="0.1" style="stop-color:#FED51B"/>
	<stop  offset="0.17" style="stop-color:#FDCA10"/>
	<stop  offset="0.25" style="stop-color:#FDC70C"/>
	<stop  offset="0.5" style="stop-color:#F3903F"/>
	<stop  offset="0.75" style="stop-color:#ED683C"/>
	<stop  offset="1" style="stop-color:#E93E3A"/>
</linearGradient>
<rect x="1143.4" y="31.1" class="st62" width="12.5" height="12.5"/>
<linearGradient id="SVGID_52_" gradientUnits="userSpaceOnUse" x1="1083.2628" y1="160.6545" x2="1194.1729" y2="90.5445" gradientTransform="matrix(1 0 0 -1 0 180)">
	<stop  offset="0" style="stop-color:#FFF33B"/>
	<stop  offset="4.000000e-02" style="stop-color:#FEE72E"/>
	<stop  offset="0.1" style="stop-color:#FED51B"/>
	<stop  offset="0.17" style="stop-color:#FDCA10"/>
	<stop  offset="0.25" style="stop-color:#FDC70C"/>
	<stop  offset="0.5" style="stop-color:#F3903F"/>
	<stop  offset="0.75" style="stop-color:#ED683C"/>
	<stop  offset="1" style="stop-color:#E93E3A"/>
</linearGradient>
<rect x="1081.8" y="16.1" class="st63" width="12.5" height="12.5"/>
<linearGradient id="SVGID_53_" gradientUnits="userSpaceOnUse" x1="1087.6729" y1="167.6144" x2="1198.5828" y2="97.5044" gradientTransform="matrix(1 0 0 -1 0 180)">
	<stop  offset="0" style="stop-color:#FFF33B"/>
	<stop  offset="4.000000e-02" style="stop-color:#FEE72E"/>
	<stop  offset="0.1" style="stop-color:#FED51B"/>
	<stop  offset="0.17" style="stop-color:#FDCA10"/>
	<stop  offset="0.25" style="stop-color:#FDC70C"/>
	<stop  offset="0.5" style="stop-color:#F3903F"/>
	<stop  offset="0.75" style="stop-color:#ED683C"/>
	<stop  offset="1" style="stop-color:#E93E3A"/>
</linearGradient>
<rect x="1097.2" y="16.1" class="st64" width="12.5" height="12.5"/>
<rect x="1081.8" y="76.1" class="st65" width="12.5" height="12.5"/>
<linearGradient id="SVGID_54_" gradientUnits="userSpaceOnUse" x1="1060.5427" y1="124.7642" x2="1171.4526" y2="54.6542" gradientTransform="matrix(1 0 0 -1 0 180)">
	<stop  offset="0" style="stop-color:#FFF33B"/>
	<stop  offset="4.000000e-02" style="stop-color:#FEE72E"/>
	<stop  offset="0.1" style="stop-color:#FED51B"/>
	<stop  offset="0.17" style="stop-color:#FDCA10"/>
	<stop  offset="0.25" style="stop-color:#FDC70C"/>
	<stop  offset="0.5" style="stop-color:#F3903F"/>
	<stop  offset="0.75" style="stop-color:#ED683C"/>
	<stop  offset="1" style="stop-color:#E93E3A"/>
</linearGradient>
<rect x="1097.2" y="76.1" class="st66" width="12.5" height="12.5"/>
<linearGradient id="SVGID_55_" gradientUnits="userSpaceOnUse" x1="1064.9525" y1="131.7241" x2="1175.8625" y2="61.6141" gradientTransform="matrix(1 0 0 -1 0 180)">
	<stop  offset="0" style="stop-color:#FFF33B"/>
	<stop  offset="4.000000e-02" style="stop-color:#FEE72E"/>
	<stop  offset="0.1" style="stop-color:#FED51B"/>
	<stop  offset="0.17" style="stop-color:#FDCA10"/>
	<stop  offset="0.25" style="stop-color:#FDC70C"/>
	<stop  offset="0.5" style="stop-color:#F3903F"/>
	<stop  offset="0.75" style="stop-color:#ED683C"/>
	<stop  offset="1" style="stop-color:#E93E3A"/>
</linearGradient>
<rect x="1112.6" y="76.1" class="st67" width="12.5" height="12.5"/>
<linearGradient id="SVGID_56_" gradientUnits="userSpaceOnUse" x1="1069.3713" y1="138.6821" x2="1180.2714" y2="68.5721" gradientTransform="matrix(1 0 0 -1 0 180)">
	<stop  offset="0" style="stop-color:#FFF33B"/>
	<stop  offset="4.000000e-02" style="stop-color:#FEE72E"/>
	<stop  offset="0.1" style="stop-color:#FED51B"/>
	<stop  offset="0.17" style="stop-color:#FDCA10"/>
	<stop  offset="0.25" style="stop-color:#FDC70C"/>
	<stop  offset="0.5" style="stop-color:#F3903F"/>
	<stop  offset="0.75" style="stop-color:#ED683C"/>
	<stop  offset="1" style="stop-color:#E93E3A"/>
</linearGradient>
<rect x="1128" y="76.1" class="st68" width="12.5" height="12.5"/>
<linearGradient id="SVGID_57_" gradientUnits="userSpaceOnUse" x1="1073.7815" y1="145.6424" x2="1184.6815" y2="75.5324" gradientTransform="matrix(1 0 0 -1 0 180)">
	<stop  offset="0" style="stop-color:#FFF33B"/>
	<stop  offset="4.000000e-02" style="stop-color:#FEE72E"/>
	<stop  offset="0.1" style="stop-color:#FED51B"/>
	<stop  offset="0.17" style="stop-color:#FDCA10"/>
	<stop  offset="0.25" style="stop-color:#FDC70C"/>
	<stop  offset="0.5" style="stop-color:#F3903F"/>
	<stop  offset="0.75" style="stop-color:#ED683C"/>
	<stop  offset="1" style="stop-color:#E93E3A"/>
</linearGradient>
<rect x="1143.4" y="76.1" class="st69" width="12.5" height="12.5"/>
<rect x="1097.1" y="91" class="st65" width="12.5" height="12.5"/>
<rect x="1112.5" y="91" class="st65" width="12.5" height="12.5"/>
<rect x="1127.9" y="91" class="st65" width="12.5" height="12.5"/>
<rect x="1143.4" y="91" class="st65" width="12.5" height="12.5"/>
<rect x="1158.8" y="90.7" class="st65" width="12.5" height="12.5"/>
<rect x="1174.2" y="90.7" class="st65" width="12.5" height="12.5"/>
<rect x="1189.6" y="90.3" class="st65" width="12.5" height="12.5"/>
<rect x="1205.1" y="90.3" class="st65" width="12.5" height="12.5"/>
<rect x="1220.6" y="90.5" class="st65" width="12.5" height="12.5"/>
<rect x="1236" y="90.2" class="st65" width="12.5" height="12.5"/>
<rect x="1050.9" y="91" class="st65" width="12.5" height="12.5"/>
<rect x="1066.3" y="91" class="st65" width="12.5" height="12.5"/>
<rect x="1081.8" y="91" class="st65" width="12.5" height="12.5"/>
<rect x="1174.3" y="76.3" class="st65" width="12.5" height="12.5"/>
<rect x="1189.7" y="76" class="st65" width="12.5" height="12.5"/>
<rect x="1205.2" y="76" class="st65" width="12.5" height="12.5"/>
<rect x="1220.7" y="76.2" class="st65" width="12.5" height="12.5"/>
<rect x="1236.1" y="75.8" class="st65" width="12.5" height="12.5"/>
<rect x="1050.9" y="16.1" class="st65" width="12.5" height="12.5"/>
<rect x="1066.3" y="16.1" class="st65" width="12.5" height="12.5"/>
<rect x="1050.9" y="31.1" class="st65" width="12.5" height="12.5"/>
<rect x="1066.3" y="31.1" class="st65" width="12.5" height="12.5"/>
<rect x="1050.9" y="46.1" class="st65" width="12.5" height="12.5"/>
<rect x="1066.3" y="46.1" class="st65" width="12.5" height="12.5"/>
<rect x="1050.9" y="61.1" class="st65" width="12.5" height="12.5"/>
<rect x="1066.3" y="61.1" class="st65" width="12.5" height="12.5"/>
<rect x="1050.9" y="76.1" class="st65" width="12.5" height="12.5"/>
<rect x="1066.3" y="76.1" class="st65" width="12.5" height="12.5"/>
<rect x="1112.6" y="16.5" class="st65" width="12.5" height="12.5"/>
<rect x="1128" y="16.5" class="st65" width="12.5" height="12.5"/>
<rect x="1143.4" y="16.5" class="st65" width="12.5" height="12.5"/>
<rect x="1158.8" y="16.2" class="st65" width="12.5" height="12.5"/>
<rect x="1174.3" y="16.2" class="st65" width="12.5" height="12.5"/>
<rect x="1189.7" y="15.9" class="st65" width="12.5" height="12.5"/>
<rect x="1205.2" y="15.9" class="st65" width="12.5" height="12.5"/>
<rect x="1220.7" y="16" class="st65" width="12.5" height="12.5"/>
<rect x="1236.1" y="15.7" class="st65" width="12.5" height="12.5"/>
<rect x="1158.8" y="31.3" class="st65" width="12.5" height="12.5"/>
<rect x="1174.3" y="31.3" class="st65" width="12.5" height="12.5"/>
<rect x="1189.7" y="31" class="st65" width="12.5" height="12.5"/>
<rect x="1205.2" y="31" class="st65" width="12.5" height="12.5"/>
<rect x="1220.7" y="31.2" class="st65" width="12.5" height="12.5"/>
<rect x="1236.1" y="30.9" class="st65" width="12.5" height="12.5"/>
<linearGradient id="SVGID_58_" gradientUnits="userSpaceOnUse" x1="1102.9274" y1="191.6458" x2="1213.8373" y2="121.5358" gradientTransform="matrix(1 0 0 -1 0 180)">
	<stop  offset="0" style="stop-color:#FFF33B"/>
	<stop  offset="4.000000e-02" style="stop-color:#FEE72E"/>
	<stop  offset="0.1" style="stop-color:#FED51B"/>
	<stop  offset="0.17" style="stop-color:#FDCA10"/>
	<stop  offset="0.25" style="stop-color:#FDC70C"/>
	<stop  offset="0.5" style="stop-color:#F3903F"/>
	<stop  offset="0.75" style="stop-color:#ED683C"/>
	<stop  offset="1" style="stop-color:#E93E3A"/>
</linearGradient>
<rect x="1220.6" y="60.4" class="st70" width="12.5" height="12.5"/>
<rect x="1236.1" y="60.4" class="st65" width="12.5" height="12.5"/>
<rect x="1205.1" y="45.8" class="st65" width="12.5" height="12.5"/>
<rect x="1220.6" y="45.9" class="st65" width="12.5" height="12.5"/>
<rect x="1236" y="45.6" class="st65" width="12.5" height="12.5"/>
<rect x="1097.1" y="1.3" class="st65" width="12.5" height="12.5"/>
<rect x="1112.5" y="1.3" class="st65" width="12.5" height="12.5"/>
<rect x="1127.9" y="1.3" class="st65" width="12.5" height="12.5"/>
<rect x="1143.4" y="1.3" class="st65" width="12.5" height="12.5"/>
<rect x="1158.8" y="1" class="st65" width="12.5" height="12.5"/>
<rect x="1174.2" y="1" class="st65" width="12.5" height="12.5"/>
<rect x="1189.6" y="0.7" class="st65" width="12.5" height="12.5"/>
<rect x="1205.1" y="0.7" class="st65" width="12.5" height="12.5"/>
<rect x="1220.6" y="0.8" class="st65" width="12.5" height="12.5"/>
<rect x="1236" y="0.5" class="st65" width="12.5" height="12.5"/>
<rect x="1050.9" y="1.3" class="st65" width="12.5" height="12.5"/>
<rect x="1066.3" y="1.3" class="st65" width="12.5" height="12.5"/>
<rect x="1081.8" y="1.3" class="st65" width="12.5" height="12.5"/>
<line class="st8" x1="1005.6" y1="36" x2="1045.5" y2="36"/>
<path class="st9" d="M1063.6,36c-8.5,3.2-19.1,8.6-25.6,14.3l5.2-14.3l-5.2-14.3C1044.5,27.4,1055,32.8,1063.6,36z"/>
<linearGradient id="SVGID_59_" gradientUnits="userSpaceOnUse" x1="674.2001" y1="70.2801" x2="785.11" y2="0.1601" gradientTransform="matrix(1 0 0 -1 0 180)">
	<stop  offset="0" style="stop-color:#FFF33B"/>
	<stop  offset="4.000000e-02" style="stop-color:#FEE72E"/>
	<stop  offset="0.1" style="stop-color:#FED51B"/>
	<stop  offset="0.17" style="stop-color:#FDCA10"/>
	<stop  offset="0.25" style="stop-color:#FDC70C"/>
	<stop  offset="0.5" style="stop-color:#F3903F"/>
	<stop  offset="0.75" style="stop-color:#ED683C"/>
	<stop  offset="1" style="stop-color:#E93E3A"/>
</linearGradient>
<rect x="748.1" y="154.1" class="st71" width="12.5" height="12.5"/>
<linearGradient id="SVGID_60_" gradientUnits="userSpaceOnUse" x1="1084.9713" y1="148.3121" x2="1195.8813" y2="78.2021" gradientTransform="matrix(1 0 0 -1 0 180)">
	<stop  offset="0" style="stop-color:#FFF33B"/>
	<stop  offset="4.000000e-02" style="stop-color:#FEE72E"/>
	<stop  offset="0.1" style="stop-color:#FED51B"/>
	<stop  offset="0.17" style="stop-color:#FDCA10"/>
	<stop  offset="0.25" style="stop-color:#FDC70C"/>
	<stop  offset="0.5" style="stop-color:#F3903F"/>
	<stop  offset="0.75" style="stop-color:#ED683C"/>
	<stop  offset="1" style="stop-color:#E93E3A"/>
</linearGradient>
<rect x="1158.8" y="76.1" class="st72" width="12.5" height="12.5"/>
<rect x="547.3" y="154.1" class="st11" width="12.5" height="12.5"/>
<g>
	<path d="M491.5,56.6V42.3h6.3c1.3,0,2.2,0.1,2.9,0.4s1.2,0.7,1.6,1.4s0.6,1.4,0.6,2.2c0,1-0.3,1.9-1,2.6s-1.7,1.1-3,1.3
		c0.5,0.2,0.9,0.5,1.1,0.7c0.6,0.5,1.1,1.1,1.6,1.9l2.5,3.9h-2.4l-1.9-3c-0.6-0.9-1-1.5-1.4-2s-0.7-0.8-1-1s-0.6-0.3-0.9-0.4
		c-0.2,0-0.6-0.1-1.1-0.1h-2.2v6.4H491.5z M493.4,48.6h4.1c0.9,0,1.5-0.1,2-0.3s0.9-0.5,1.1-0.9s0.4-0.8,0.4-1.3
		c0-0.7-0.2-1.2-0.7-1.7s-1.3-0.7-2.3-0.7h-4.5V48.6z"/>
	<path d="M512.4,55.4c-0.7,0.6-1.3,0.9-1.9,1.2s-1.2,0.3-1.9,0.3c-1.1,0-2-0.3-2.6-0.8s-0.9-1.3-0.9-2.1c0-0.5,0.1-1,0.3-1.4
		s0.5-0.8,0.9-1s0.8-0.4,1.3-0.6c0.3-0.1,0.9-0.2,1.6-0.3c1.4-0.2,2.5-0.4,3.1-0.6c0-0.2,0-0.4,0-0.5c0-0.7-0.2-1.2-0.5-1.5
		c-0.4-0.4-1.1-0.6-2-0.6c-0.8,0-1.4,0.1-1.8,0.4s-0.7,0.8-0.9,1.5l-1.7-0.2c0.2-0.7,0.4-1.3,0.8-1.8s0.9-0.8,1.6-1s1.5-0.4,2.4-0.4
		c0.9,0,1.6,0.1,2.2,0.3s1,0.5,1.2,0.8s0.4,0.7,0.5,1.2c0.1,0.3,0.1,0.8,0.1,1.6v2.3c0,1.6,0,2.7,0.1,3.1s0.2,0.8,0.4,1.2h-1.8
		C512.6,56.3,512.5,55.8,512.4,55.4z M512.3,51.4c-0.6,0.3-1.6,0.5-2.9,0.7c-0.7,0.1-1.2,0.2-1.5,0.4s-0.5,0.3-0.7,0.6
		s-0.2,0.5-0.2,0.8c0,0.5,0.2,0.9,0.5,1.2s0.9,0.5,1.6,0.5c0.7,0,1.3-0.1,1.8-0.4s0.9-0.7,1.2-1.2c0.2-0.4,0.3-1,0.3-1.8V51.4z"/>
	<path d="M516.1,53.5l1.7-0.3c0.1,0.7,0.4,1.2,0.8,1.6s1.1,0.6,1.9,0.6c0.8,0,1.4-0.2,1.8-0.5s0.6-0.7,0.6-1.2
		c0-0.4-0.2-0.7-0.5-0.9c-0.2-0.2-0.8-0.4-1.8-0.6c-1.3-0.3-2.2-0.6-2.7-0.8s-0.9-0.6-1.1-1s-0.4-0.9-0.4-1.4c0-0.5,0.1-0.9,0.3-1.3
		s0.5-0.7,0.9-1c0.3-0.2,0.6-0.4,1.1-0.5s1-0.2,1.5-0.2c0.8,0,1.5,0.1,2.1,0.4s1.1,0.6,1.4,1s0.5,0.9,0.6,1.6l-1.7,0.2
		c-0.1-0.5-0.3-1-0.7-1.3s-0.9-0.4-1.6-0.4c-0.8,0-1.4,0.1-1.7,0.4s-0.5,0.6-0.5,0.9c0,0.2,0.1,0.4,0.2,0.6c0.1,0.2,0.4,0.3,0.7,0.5
		c0.2,0.1,0.7,0.2,1.6,0.4c1.2,0.3,2.1,0.6,2.6,0.8s0.9,0.5,1.2,0.9s0.4,0.9,0.4,1.5c0,0.6-0.2,1.1-0.5,1.7s-0.8,0.9-1.5,1.2
		s-1.4,0.4-2.2,0.4c-1.3,0-2.4-0.3-3.1-0.8S516.3,54.6,516.1,53.5z"/>
	<path d="M530.6,55.1l0.3,1.6c-0.5,0.1-0.9,0.2-1.3,0.2c-0.6,0-1.1-0.1-1.5-0.3s-0.6-0.5-0.7-0.8s-0.2-1-0.2-2.1v-6h-1.3v-1.4h1.3
		v-2.6l1.7-1.1v3.6h1.8v1.4h-1.8v6.1c0,0.5,0,0.8,0.1,1s0.2,0.3,0.3,0.3s0.3,0.1,0.6,0.1C530,55.1,530.3,55.1,530.6,55.1z"/>
	<path d="M539.4,53.3l1.8,0.2c-0.3,1.1-0.8,1.9-1.6,2.5s-1.8,0.9-3,0.9c-1.5,0-2.7-0.5-3.6-1.4s-1.3-2.2-1.3-3.9
		c0-1.7,0.4-3.1,1.3-4.1s2.1-1.4,3.5-1.4c1.4,0,2.5,0.5,3.4,1.4s1.3,2.3,1.3,4c0,0.1,0,0.3,0,0.5h-7.7c0.1,1.1,0.4,2,1,2.6
		s1.3,0.9,2.2,0.9c0.6,0,1.2-0.2,1.7-0.5S539.2,54,539.4,53.3z M533.7,50.5h5.8c-0.1-0.9-0.3-1.5-0.7-2c-0.6-0.7-1.3-1-2.2-1
		c-0.8,0-1.5,0.3-2,0.8S533.7,49.6,533.7,50.5z"/>
	<path d="M543.4,56.6V46.3h1.6v1.6c0.4-0.7,0.8-1.2,1.1-1.5s0.7-0.4,1.1-0.4c0.6,0,1.2,0.2,1.8,0.6l-0.6,1.6
		c-0.4-0.3-0.9-0.4-1.3-0.4c-0.4,0-0.7,0.1-1,0.3s-0.5,0.6-0.7,1c-0.2,0.6-0.3,1.3-0.3,2.1v5.4H543.4z"/>
	<path d="M550.1,44.3v-2h1.8v2H550.1z M550.1,56.6V46.3h1.8v10.4H550.1z"/>
	<path d="M553.6,56.6v-1.4l6.6-7.6c-0.7,0-1.4,0.1-2,0.1H554v-1.4h8.5v1.2l-5.6,6.6l-1.1,1.2c0.8-0.1,1.5-0.1,2.2-0.1h4.8v1.5H553.6
		z"/>
	<path d="M571.3,55.4c-0.7,0.6-1.3,0.9-1.9,1.2s-1.2,0.3-1.9,0.3c-1.1,0-2-0.3-2.6-0.8s-0.9-1.3-0.9-2.1c0-0.5,0.1-1,0.3-1.4
		s0.5-0.8,0.9-1s0.8-0.4,1.3-0.6c0.3-0.1,0.9-0.2,1.6-0.3c1.4-0.2,2.5-0.4,3.1-0.6c0-0.2,0-0.4,0-0.5c0-0.7-0.2-1.2-0.5-1.5
		c-0.4-0.4-1.1-0.6-2-0.6c-0.8,0-1.4,0.1-1.8,0.4s-0.7,0.8-0.9,1.5l-1.7-0.2c0.2-0.7,0.4-1.3,0.8-1.8s0.9-0.8,1.6-1s1.5-0.4,2.4-0.4
		c0.9,0,1.6,0.1,2.2,0.3s1,0.5,1.2,0.8s0.4,0.7,0.5,1.2c0.1,0.3,0.1,0.8,0.1,1.6v2.3c0,1.6,0,2.7,0.1,3.1s0.2,0.8,0.4,1.2h-1.8
		C571.5,56.3,571.4,55.8,571.3,55.4z M571.2,51.4c-0.6,0.3-1.6,0.5-2.9,0.7c-0.7,0.1-1.2,0.2-1.5,0.4s-0.5,0.3-0.7,0.6
		s-0.2,0.5-0.2,0.8c0,0.5,0.2,0.9,0.5,1.2s0.9,0.5,1.6,0.5c0.7,0,1.3-0.1,1.8-0.4s0.9-0.7,1.2-1.2c0.2-0.4,0.3-1,0.3-1.8V51.4z"/>
	<path d="M579.5,55.1l0.3,1.6c-0.5,0.1-0.9,0.2-1.3,0.2c-0.6,0-1.1-0.1-1.5-0.3s-0.6-0.5-0.7-0.8s-0.2-1-0.2-2.1v-6h-1.3v-1.4h1.3
		v-2.6l1.7-1.1v3.6h1.8v1.4h-1.8v6.1c0,0.5,0,0.8,0.1,1s0.2,0.3,0.3,0.3s0.3,0.1,0.6,0.1C578.9,55.1,579.2,55.1,579.5,55.1z"/>
	<path d="M581.2,44.3v-2h1.8v2H581.2z M581.2,56.6V46.3h1.8v10.4H581.2z"/>
	<path d="M585,51.5c0-1.9,0.5-3.3,1.6-4.3c0.9-0.8,2-1.2,3.3-1.2c1.4,0,2.6,0.5,3.5,1.4s1.4,2.2,1.4,3.9c0,1.3-0.2,2.4-0.6,3.1
		s-1,1.4-1.7,1.8s-1.6,0.6-2.5,0.6c-1.5,0-2.6-0.5-3.5-1.4S585,53.2,585,51.5z M586.8,51.5c0,1.3,0.3,2.3,0.9,3s1.3,1,2.2,1
		c0.9,0,1.6-0.3,2.2-1s0.9-1.7,0.9-3c0-1.3-0.3-2.3-0.9-2.9s-1.3-1-2.2-1c-0.9,0-1.6,0.3-2.2,1S586.8,50.1,586.8,51.5z"/>
	<path d="M596.8,56.6V46.3h1.6v1.5c0.8-1.1,1.9-1.7,3.3-1.7c0.6,0,1.2,0.1,1.7,0.3s0.9,0.5,1.2,0.9s0.4,0.8,0.5,1.3
		c0.1,0.3,0.1,0.9,0.1,1.7v6.4h-1.8v-6.3c0-0.7-0.1-1.3-0.2-1.6s-0.4-0.6-0.7-0.8s-0.8-0.3-1.2-0.3c-0.7,0-1.4,0.2-1.9,0.7
		s-0.8,1.4-0.8,2.7v5.7H596.8z"/>
</g>
<g>
	<path d="M671.7,57.3V43h9.7v1.7h-7.8v4.4h6.7v1.7h-6.7v6.5H671.7z"/>
	<path d="M683.5,57.3V47h1.6v1.6c0.4-0.7,0.8-1.2,1.1-1.5s0.7-0.4,1.1-0.4c0.6,0,1.2,0.2,1.8,0.6l-0.6,1.6c-0.4-0.3-0.9-0.4-1.3-0.4
		c-0.4,0-0.7,0.1-1,0.3c-0.3,0.2-0.5,0.6-0.7,1c-0.2,0.6-0.3,1.3-0.3,2.1v5.4H683.5z"/>
	<path d="M697,56c-0.7,0.6-1.3,0.9-1.9,1.2c-0.6,0.2-1.2,0.3-1.9,0.3c-1.1,0-2-0.3-2.6-0.8c-0.6-0.6-0.9-1.3-0.9-2.1
		c0-0.5,0.1-1,0.3-1.4c0.2-0.4,0.5-0.8,0.9-1c0.4-0.3,0.8-0.4,1.3-0.6c0.3-0.1,0.9-0.2,1.6-0.3c1.4-0.2,2.5-0.4,3.1-0.6
		c0-0.2,0-0.4,0-0.5c0-0.7-0.2-1.2-0.5-1.5c-0.4-0.4-1.1-0.6-2-0.6c-0.8,0-1.4,0.1-1.8,0.4c-0.4,0.3-0.7,0.8-0.9,1.5l-1.7-0.2
		c0.2-0.7,0.4-1.3,0.8-1.8c0.4-0.5,0.9-0.8,1.6-1c0.7-0.2,1.5-0.4,2.4-0.4c0.9,0,1.6,0.1,2.2,0.3c0.6,0.2,1,0.5,1.2,0.8
		c0.3,0.3,0.4,0.7,0.5,1.2c0.1,0.3,0.1,0.8,0.1,1.6V53c0,1.6,0,2.7,0.1,3.1c0.1,0.4,0.2,0.8,0.4,1.2h-1.8C697.1,57,697,56.5,697,56z
		 M696.8,52.1c-0.6,0.3-1.6,0.5-2.9,0.7c-0.7,0.1-1.2,0.2-1.5,0.4c-0.3,0.1-0.5,0.3-0.7,0.6c-0.2,0.3-0.2,0.5-0.2,0.8
		c0,0.5,0.2,0.9,0.5,1.2c0.4,0.3,0.9,0.5,1.6,0.5c0.7,0,1.3-0.1,1.8-0.4s0.9-0.7,1.2-1.2c0.2-0.4,0.3-1,0.3-1.8V52.1z"/>
	<path d="M701,58.2l1.7,0.3c0.1,0.5,0.3,0.9,0.6,1.2c0.4,0.3,1,0.5,1.8,0.5c0.8,0,1.4-0.2,1.9-0.5c0.4-0.3,0.7-0.8,0.9-1.4
		c0.1-0.4,0.1-1.1,0.1-2.3c-0.8,0.9-1.7,1.4-2.9,1.4c-1.4,0-2.5-0.5-3.3-1.5s-1.2-2.3-1.2-3.7c0-1,0.2-1.9,0.5-2.7
		c0.4-0.8,0.9-1.5,1.6-1.9c0.7-0.5,1.5-0.7,2.4-0.7c1.2,0,2.2,0.5,3,1.5V47h1.6v9c0,1.6-0.2,2.8-0.5,3.4c-0.3,0.7-0.8,1.2-1.6,1.6
		s-1.6,0.6-2.6,0.6c-1.2,0-2.2-0.3-3-0.8S701,59.3,701,58.2z M702.5,52c0,1.4,0.3,2.4,0.8,3c0.5,0.6,1.2,0.9,2,0.9
		c0.8,0,1.5-0.3,2-0.9s0.8-1.6,0.8-2.9c0-1.3-0.3-2.2-0.8-2.9c-0.6-0.6-1.2-1-2-1c-0.8,0-1.4,0.3-2,1S702.5,50.7,702.5,52z"/>
	<path d="M712.5,57.3V47h1.6v1.5c0.3-0.5,0.8-0.9,1.3-1.2c0.5-0.3,1.2-0.5,1.8-0.5c0.8,0,1.4,0.2,1.9,0.5c0.5,0.3,0.8,0.8,1,1.3
		c0.8-1.2,1.9-1.8,3.2-1.8c1,0,1.8,0.3,2.4,0.9c0.6,0.6,0.8,1.4,0.8,2.6v7.1h-1.7v-6.5c0-0.7-0.1-1.2-0.2-1.5
		c-0.1-0.3-0.3-0.6-0.6-0.7c-0.3-0.2-0.7-0.3-1.1-0.3c-0.7,0-1.3,0.2-1.8,0.7c-0.5,0.5-0.7,1.3-0.7,2.3v6h-1.8v-6.7
		c0-0.8-0.1-1.4-0.4-1.8c-0.3-0.4-0.8-0.6-1.4-0.6c-0.5,0-1,0.1-1.4,0.4s-0.7,0.6-0.9,1.1c-0.2,0.5-0.3,1.2-0.3,2.2v5.4H712.5z"/>
	<path d="M736.2,54l1.8,0.2c-0.3,1.1-0.8,1.9-1.6,2.5c-0.8,0.6-1.8,0.9-3,0.9c-1.5,0-2.7-0.5-3.6-1.4s-1.3-2.2-1.3-3.9
		c0-1.7,0.4-3.1,1.3-4.1s2.1-1.4,3.5-1.4c1.4,0,2.5,0.5,3.4,1.4s1.3,2.3,1.3,4c0,0.1,0,0.3,0,0.5h-7.7c0.1,1.1,0.4,2,1,2.6
		c0.6,0.6,1.3,0.9,2.2,0.9c0.6,0,1.2-0.2,1.7-0.5C735.6,55.3,735.9,54.7,736.2,54z M730.4,51.1h5.8c-0.1-0.9-0.3-1.5-0.7-2
		c-0.6-0.7-1.3-1-2.2-1c-0.8,0-1.5,0.3-2,0.8C730.8,49.5,730.5,50.2,730.4,51.1z"/>
	<path d="M740.2,57.3V47h1.6v1.5c0.8-1.1,1.9-1.7,3.3-1.7c0.6,0,1.2,0.1,1.7,0.3c0.5,0.2,0.9,0.5,1.2,0.9c0.3,0.4,0.4,0.8,0.5,1.3
		c0.1,0.3,0.1,0.9,0.1,1.7v6.4h-1.8V51c0-0.7-0.1-1.3-0.2-1.6s-0.4-0.6-0.7-0.8c-0.3-0.2-0.8-0.3-1.2-0.3c-0.8,0-1.4,0.2-1.9,0.7
		c-0.5,0.5-0.8,1.4-0.8,2.7v5.7H740.2z"/>
	<path d="M755.2,55.8l0.3,1.6c-0.5,0.1-0.9,0.2-1.3,0.2c-0.6,0-1.1-0.1-1.5-0.3s-0.6-0.5-0.7-0.8c-0.1-0.3-0.2-1-0.2-2.1v-6h-1.3V47
		h1.3v-2.6l1.7-1.1V47h1.8v1.4h-1.8v6.1c0,0.5,0,0.8,0.1,1c0.1,0.1,0.2,0.3,0.3,0.3c0.1,0.1,0.3,0.1,0.6,0.1
		C754.6,55.8,754.9,55.8,755.2,55.8z"/>
	<path d="M762.1,52.7l1.8-0.2c0.1,0.7,0.3,1.3,0.6,1.8c0.3,0.5,0.8,0.8,1.4,1.1c0.7,0.3,1.4,0.4,2.2,0.4c0.7,0,1.4-0.1,1.9-0.3
		c0.6-0.2,1-0.5,1.2-0.9c0.3-0.4,0.4-0.8,0.4-1.2c0-0.4-0.1-0.8-0.4-1.2c-0.3-0.3-0.7-0.6-1.3-0.8c-0.4-0.1-1.2-0.4-2.5-0.7
		c-1.3-0.3-2.2-0.6-2.8-0.9c-0.7-0.4-1.2-0.8-1.5-1.3c-0.3-0.5-0.5-1.1-0.5-1.8c0-0.7,0.2-1.4,0.6-2s1-1.1,1.8-1.4
		c0.8-0.3,1.7-0.5,2.6-0.5c1.1,0,2,0.2,2.8,0.5s1.4,0.8,1.9,1.5c0.4,0.7,0.7,1.4,0.7,2.3l-1.8,0.1c-0.1-0.9-0.4-1.6-1-2.1
		c-0.6-0.5-1.4-0.7-2.5-0.7c-1.1,0-2,0.2-2.5,0.6c-0.5,0.4-0.8,0.9-0.8,1.5c0,0.5,0.2,0.9,0.6,1.3c0.4,0.3,1.3,0.7,2.9,1
		c1.5,0.3,2.6,0.7,3.2,0.9c0.8,0.4,1.4,0.9,1.8,1.5c0.4,0.6,0.6,1.3,0.6,2c0,0.8-0.2,1.5-0.7,2.2c-0.4,0.7-1.1,1.2-1.9,1.6
		c-0.8,0.4-1.7,0.6-2.8,0.6c-1.3,0-2.4-0.2-3.3-0.6c-0.9-0.4-1.6-0.9-2.1-1.7S762.1,53.7,762.1,52.7z"/>
	<path d="M775.8,57.3V43h1.8v5.1c0.8-1,1.9-1.4,3.1-1.4c0.8,0,1.4,0.2,2,0.5s1,0.7,1.2,1.3s0.4,1.3,0.4,2.3v6.6h-1.8v-6.6
		c0-0.9-0.2-1.5-0.6-1.9s-0.9-0.6-1.6-0.6c-0.5,0-1,0.1-1.5,0.4s-0.8,0.6-1,1.1s-0.3,1.1-0.3,1.9v5.7H775.8z"/>
	<path d="M793.7,56c-0.7,0.6-1.3,0.9-1.9,1.2c-0.6,0.2-1.2,0.3-1.9,0.3c-1.1,0-2-0.3-2.6-0.8c-0.6-0.6-0.9-1.3-0.9-2.1
		c0-0.5,0.1-1,0.3-1.4c0.2-0.4,0.5-0.8,0.9-1c0.4-0.3,0.8-0.4,1.3-0.6c0.3-0.1,0.9-0.2,1.6-0.3c1.4-0.2,2.5-0.4,3.1-0.6
		c0-0.2,0-0.4,0-0.5c0-0.7-0.2-1.2-0.5-1.5c-0.4-0.4-1.1-0.6-2-0.6c-0.8,0-1.4,0.1-1.8,0.4c-0.4,0.3-0.7,0.8-0.9,1.5l-1.7-0.2
		c0.2-0.7,0.4-1.3,0.8-1.8c0.4-0.5,0.9-0.8,1.6-1c0.7-0.2,1.5-0.4,2.4-0.4c0.9,0,1.6,0.1,2.2,0.3c0.6,0.2,1,0.5,1.2,0.8
		c0.3,0.3,0.4,0.7,0.5,1.2c0.1,0.3,0.1,0.8,0.1,1.6V53c0,1.6,0,2.7,0.1,3.1c0.1,0.4,0.2,0.8,0.4,1.2h-1.8
		C793.9,57,793.8,56.5,793.7,56z M793.6,52.1c-0.6,0.3-1.6,0.5-2.9,0.7c-0.7,0.1-1.2,0.2-1.5,0.4c-0.3,0.1-0.5,0.3-0.7,0.6
		c-0.2,0.3-0.2,0.5-0.2,0.8c0,0.5,0.2,0.9,0.5,1.2c0.4,0.3,0.9,0.5,1.6,0.5c0.7,0,1.3-0.1,1.8-0.4s0.9-0.7,1.2-1.2
		c0.2-0.4,0.3-1,0.3-1.8V52.1z"/>
	<path d="M804.8,57.3V56c-0.7,1-1.6,1.5-2.9,1.5c-0.8,0-1.6-0.2-2.3-0.7s-1.2-1.1-1.6-1.9s-0.6-1.8-0.6-2.8c0-1,0.2-2,0.5-2.8
		c0.3-0.8,0.9-1.5,1.6-1.9c0.7-0.4,1.5-0.7,2.3-0.7c0.6,0,1.2,0.1,1.7,0.4s0.9,0.6,1.2,1V43h1.7v14.3H804.8z M799.2,52.1
		c0,1.3,0.3,2.3,0.8,3c0.6,0.7,1.2,1,2,1c0.8,0,1.4-0.3,2-0.9s0.8-1.6,0.8-2.9c0-1.4-0.3-2.5-0.8-3.1s-1.2-1-2-1c-0.8,0-1.4,0.3-2,1
		C799.5,49.8,799.2,50.8,799.2,52.1z"/>
	<path d="M816.3,54l1.8,0.2c-0.3,1.1-0.8,1.9-1.6,2.5c-0.8,0.6-1.8,0.9-3,0.9c-1.5,0-2.7-0.5-3.6-1.4s-1.3-2.2-1.3-3.9
		c0-1.7,0.4-3.1,1.3-4.1s2.1-1.4,3.5-1.4c1.4,0,2.5,0.5,3.4,1.4s1.3,2.3,1.3,4c0,0.1,0,0.3,0,0.5h-7.7c0.1,1.1,0.4,2,1,2.6
		c0.6,0.6,1.3,0.9,2.2,0.9c0.6,0,1.2-0.2,1.7-0.5C815.7,55.3,816,54.7,816.3,54z M810.5,51.1h5.8c-0.1-0.9-0.3-1.5-0.7-2
		c-0.6-0.7-1.3-1-2.2-1c-0.8,0-1.5,0.3-2,0.8C810.9,49.5,810.6,50.2,810.5,51.1z"/>
	<path d="M820.3,57.3V47h1.6v1.6c0.4-0.7,0.8-1.2,1.1-1.5s0.7-0.4,1.1-0.4c0.6,0,1.2,0.2,1.8,0.6l-0.6,1.6c-0.4-0.3-0.9-0.4-1.3-0.4
		c-0.4,0-0.7,0.1-1,0.3c-0.3,0.2-0.5,0.6-0.7,1c-0.2,0.6-0.3,1.3-0.3,2.1v5.4H820.3z"/>
</g>
<g>
	<path d="M894.9,45.3V31h5.4c1,0,1.7,0,2.2,0.1c0.7,0.1,1.3,0.3,1.8,0.7s0.9,0.8,1.1,1.4s0.4,1.2,0.4,2c0,1.2-0.4,2.2-1.2,3.1
		s-2.2,1.3-4.2,1.3h-3.7v5.8H894.9z M896.8,37.8h3.7c1.2,0,2.1-0.2,2.6-0.7s0.8-1.1,0.8-1.9c0-0.6-0.2-1.1-0.5-1.5s-0.7-0.7-1.2-0.8
		c-0.3-0.1-0.9-0.1-1.8-0.1h-3.7V37.8z"/>
	<path d="M915.1,42l1.8,0.2c-0.3,1.1-0.8,1.9-1.6,2.5s-1.8,0.9-3,0.9c-1.5,0-2.7-0.5-3.6-1.4s-1.3-2.2-1.3-3.9
		c0-1.7,0.4-3.1,1.3-4.1s2.1-1.4,3.5-1.4c1.4,0,2.5,0.5,3.4,1.4s1.3,2.3,1.3,4c0,0.1,0,0.3,0,0.5h-7.7c0.1,1.1,0.4,2,1,2.6
		s1.3,0.9,2.2,0.9c0.6,0,1.2-0.2,1.7-0.5S914.8,42.7,915.1,42z M909.3,39.1h5.8c-0.1-0.9-0.3-1.5-0.7-2c-0.6-0.7-1.3-1-2.2-1
		c-0.8,0-1.5,0.3-2,0.8S909.4,38.2,909.3,39.1z"/>
	<path d="M919.1,45.3V35h1.6v1.6c0.4-0.7,0.8-1.2,1.1-1.5s0.7-0.4,1.1-0.4c0.6,0,1.2,0.2,1.8,0.6l-0.6,1.6c-0.4-0.3-0.9-0.4-1.3-0.4
		c-0.4,0-0.7,0.1-1,0.3s-0.5,0.6-0.7,1c-0.2,0.6-0.3,1.3-0.3,2.1v5.4H919.1z"/>
	<path d="M925.1,41v-1.8h5.4V41H925.1z"/>
	<path d="M931.7,42.2l1.7-0.3c0.1,0.7,0.4,1.2,0.8,1.6s1.1,0.6,1.9,0.6c0.8,0,1.4-0.2,1.8-0.5s0.6-0.7,0.6-1.2
		c0-0.4-0.2-0.7-0.5-0.9c-0.2-0.2-0.8-0.4-1.8-0.6c-1.3-0.3-2.2-0.6-2.7-0.8s-0.9-0.6-1.1-1s-0.4-0.9-0.4-1.4c0-0.5,0.1-0.9,0.3-1.3
		s0.5-0.7,0.9-1c0.3-0.2,0.6-0.4,1.1-0.5s1-0.2,1.5-0.2c0.8,0,1.5,0.1,2.1,0.4s1.1,0.6,1.4,1s0.5,0.9,0.6,1.6l-1.7,0.2
		c-0.1-0.5-0.3-1-0.7-1.3s-0.9-0.4-1.6-0.4c-0.8,0-1.4,0.1-1.7,0.4s-0.5,0.6-0.5,0.9c0,0.2,0.1,0.4,0.2,0.6c0.1,0.2,0.4,0.3,0.7,0.5
		c0.2,0.1,0.7,0.2,1.6,0.4c1.2,0.3,2.1,0.6,2.6,0.8s0.9,0.5,1.2,0.9s0.4,0.9,0.4,1.5c0,0.6-0.2,1.1-0.5,1.7s-0.8,0.9-1.5,1.2
		s-1.4,0.4-2.2,0.4c-1.3,0-2.4-0.3-3.1-0.8S931.9,43.3,931.7,42.2z"/>
	<path d="M949.2,44c-0.7,0.6-1.3,0.9-1.9,1.2s-1.2,0.3-1.9,0.3c-1.1,0-2-0.3-2.6-0.8s-0.9-1.3-0.9-2.1c0-0.5,0.1-1,0.3-1.4
		s0.5-0.8,0.9-1s0.8-0.4,1.3-0.6c0.3-0.1,0.9-0.2,1.6-0.3c1.4-0.2,2.5-0.4,3.1-0.6c0-0.2,0-0.4,0-0.5c0-0.7-0.2-1.2-0.5-1.5
		c-0.4-0.4-1.1-0.6-2-0.6c-0.8,0-1.4,0.1-1.8,0.4s-0.7,0.8-0.9,1.5l-1.7-0.2c0.2-0.7,0.4-1.3,0.8-1.8s0.9-0.8,1.6-1s1.5-0.4,2.4-0.4
		c0.9,0,1.6,0.1,2.2,0.3s1,0.5,1.2,0.8s0.4,0.7,0.5,1.2c0.1,0.3,0.1,0.8,0.1,1.6V41c0,1.6,0,2.7,0.1,3.1s0.2,0.8,0.4,1.2h-1.8
		C949.4,45,949.2,44.5,949.2,44z M949,40.1c-0.6,0.3-1.6,0.5-2.9,0.7c-0.7,0.1-1.2,0.2-1.5,0.4s-0.5,0.3-0.7,0.6s-0.2,0.5-0.2,0.8
		c0,0.5,0.2,0.9,0.5,1.2s0.9,0.5,1.6,0.5c0.7,0,1.3-0.1,1.8-0.4s0.9-0.7,1.2-1.2c0.2-0.4,0.3-1,0.3-1.8V40.1z"/>
	<path d="M953.5,45.3V35h1.6v1.5c0.3-0.5,0.8-0.9,1.3-1.2s1.2-0.5,1.8-0.5c0.8,0,1.4,0.2,1.9,0.5s0.8,0.8,1,1.3
		c0.8-1.2,1.9-1.8,3.2-1.8c1,0,1.8,0.3,2.4,0.9s0.8,1.4,0.8,2.6v7.1h-1.7v-6.5c0-0.7-0.1-1.2-0.2-1.5s-0.3-0.6-0.6-0.7
		s-0.7-0.3-1.1-0.3c-0.7,0-1.3,0.2-1.8,0.7s-0.7,1.3-0.7,2.3v6h-1.8v-6.7c0-0.8-0.1-1.4-0.4-1.8s-0.8-0.6-1.4-0.6
		c-0.5,0-1,0.1-1.4,0.4s-0.7,0.6-0.9,1.1s-0.3,1.2-0.3,2.2v5.4H953.5z"/>
	<path d="M970.2,49.3V35h1.6v1.3c0.4-0.5,0.8-0.9,1.3-1.2s1.1-0.4,1.7-0.4c0.9,0,1.7,0.2,2.3,0.7s1.2,1.1,1.5,1.9s0.5,1.7,0.5,2.7
		c0,1.1-0.2,2-0.6,2.9s-0.9,1.5-1.7,2s-1.5,0.7-2.3,0.7c-0.6,0-1.1-0.1-1.6-0.4s-0.8-0.6-1.1-0.9v5H970.2z M971.8,40.2
		c0,1.3,0.3,2.3,0.8,3s1.2,1,2,1c0.8,0,1.5-0.3,2-1s0.8-1.7,0.8-3.1c0-1.3-0.3-2.3-0.8-3s-1.2-1-1.9-1c-0.7,0-1.4,0.4-2,1
		S971.8,38.9,971.8,40.2z"/>
	<path d="M981.3,45.3V31h1.8v14.3H981.3z"/>
	<path d="M992.9,42l1.8,0.2c-0.3,1.1-0.8,1.9-1.6,2.5s-1.8,0.9-3,0.9c-1.5,0-2.7-0.5-3.6-1.4s-1.3-2.2-1.3-3.9
		c0-1.7,0.4-3.1,1.3-4.1s2.1-1.4,3.5-1.4c1.4,0,2.5,0.5,3.4,1.4s1.3,2.3,1.3,4c0,0.1,0,0.3,0,0.5H987c0.1,1.1,0.4,2,1,2.6
		s1.3,0.9,2.2,0.9c0.6,0,1.2-0.2,1.7-0.5S992.6,42.7,992.9,42z M987.1,39.1h5.8c-0.1-0.9-0.3-1.5-0.7-2c-0.6-0.7-1.3-1-2.2-1
		c-0.8,0-1.5,0.3-2,0.8S987.2,38.2,987.1,39.1z"/>
	<path d="M896.5,62.4c0-2.4,0.6-4.2,1.9-5.6s2.9-2,4.9-2c1.3,0,2.5,0.3,3.6,0.9s1.9,1.5,2.4,2.6s0.8,2.4,0.8,3.8
		c0,1.5-0.3,2.8-0.9,3.9s-1.4,2-2.5,2.6s-2.2,0.9-3.5,0.9c-1.3,0-2.6-0.3-3.6-1s-1.9-1.5-2.4-2.7S896.5,63.6,896.5,62.4z
		 M898.4,62.4c0,1.7,0.5,3.1,1.4,4.1s2.1,1.5,3.5,1.5c1.4,0,2.6-0.5,3.5-1.5s1.4-2.4,1.4-4.3c0-1.2-0.2-2.2-0.6-3.1s-1-1.5-1.7-2
		s-1.6-0.7-2.6-0.7c-1.3,0-2.5,0.5-3.5,1.4S898.4,60.2,898.4,62.4z"/>
	<path d="M912.4,73.3V59h1.6v1.3c0.4-0.5,0.8-0.9,1.3-1.2s1.1-0.4,1.7-0.4c0.9,0,1.7,0.2,2.3,0.7s1.2,1.1,1.5,1.9s0.5,1.7,0.5,2.7
		c0,1.1-0.2,2-0.6,2.9s-0.9,1.5-1.7,2s-1.5,0.7-2.3,0.7c-0.6,0-1.1-0.1-1.6-0.4s-0.8-0.6-1.1-0.9v5H912.4z M914,64.2
		c0,1.3,0.3,2.3,0.8,3s1.2,1,2,1c0.8,0,1.5-0.3,2-1s0.8-1.7,0.8-3.1c0-1.3-0.3-2.3-0.8-3s-1.2-1-1.9-1c-0.7,0-1.4,0.4-2,1
		S914,62.9,914,64.2z"/>
	<path d="M930.6,66l1.8,0.2c-0.3,1.1-0.8,1.9-1.6,2.5s-1.8,0.9-3,0.9c-1.5,0-2.7-0.5-3.6-1.4s-1.3-2.2-1.3-3.9
		c0-1.7,0.4-3.1,1.3-4.1s2.1-1.4,3.5-1.4c1.4,0,2.5,0.5,3.4,1.4s1.3,2.3,1.3,4c0,0.1,0,0.3,0,0.5h-7.7c0.1,1.1,0.4,2,1,2.6
		s1.3,0.9,2.2,0.9c0.6,0,1.2-0.2,1.7-0.5S930.4,66.7,930.6,66z M924.9,63.1h5.8c-0.1-0.9-0.3-1.5-0.7-2c-0.6-0.7-1.3-1-2.2-1
		c-0.8,0-1.5,0.3-2,0.8S924.9,62.2,924.9,63.1z"/>
	<path d="M934.6,69.3V59h1.6v1.6c0.4-0.7,0.8-1.2,1.1-1.5s0.7-0.4,1.1-0.4c0.6,0,1.2,0.2,1.8,0.6l-0.6,1.6c-0.4-0.3-0.9-0.4-1.3-0.4
		c-0.4,0-0.7,0.1-1,0.3s-0.5,0.6-0.7,1c-0.2,0.6-0.3,1.3-0.3,2.1v5.4H934.6z"/>
	<path d="M948.1,68c-0.7,0.6-1.3,0.9-1.9,1.2s-1.2,0.3-1.9,0.3c-1.1,0-2-0.3-2.6-0.8s-0.9-1.3-0.9-2.1c0-0.5,0.1-1,0.3-1.4
		s0.5-0.8,0.9-1s0.8-0.4,1.3-0.6c0.3-0.1,0.9-0.2,1.6-0.3c1.4-0.2,2.5-0.4,3.1-0.6c0-0.2,0-0.4,0-0.5c0-0.7-0.2-1.2-0.5-1.5
		c-0.4-0.4-1.1-0.6-2-0.6c-0.8,0-1.4,0.1-1.8,0.4s-0.7,0.8-0.9,1.5l-1.7-0.2c0.2-0.7,0.4-1.3,0.8-1.8s0.9-0.8,1.6-1s1.5-0.4,2.4-0.4
		c0.9,0,1.6,0.1,2.2,0.3s1,0.5,1.2,0.8s0.4,0.7,0.5,1.2c0.1,0.3,0.1,0.8,0.1,1.6V65c0,1.6,0,2.7,0.1,3.1s0.2,0.8,0.4,1.2h-1.8
		C948.2,69,948.1,68.5,948.1,68z M947.9,64.1c-0.6,0.3-1.6,0.5-2.9,0.7c-0.7,0.1-1.2,0.2-1.5,0.4s-0.5,0.3-0.7,0.6s-0.2,0.5-0.2,0.8
		c0,0.5,0.2,0.9,0.5,1.2s0.9,0.5,1.6,0.5c0.7,0,1.3-0.1,1.8-0.4s0.9-0.7,1.2-1.2c0.2-0.4,0.3-1,0.3-1.8V64.1z"/>
	<path d="M956.3,67.8l0.3,1.6c-0.5,0.1-0.9,0.2-1.3,0.2c-0.6,0-1.1-0.1-1.5-0.3s-0.6-0.5-0.7-0.8s-0.2-1-0.2-2.1v-6h-1.3V59h1.3
		v-2.6l1.7-1.1V59h1.8v1.4h-1.8v6.1c0,0.5,0,0.8,0.1,1s0.2,0.3,0.3,0.3s0.3,0.1,0.6,0.1C955.7,67.8,955.9,67.8,956.3,67.8z"/>
	<path d="M958,57v-2h1.8v2H958z M958,69.3V59h1.8v10.4H958z"/>
	<path d="M961.8,64.1c0-1.9,0.5-3.3,1.6-4.3c0.9-0.8,2-1.2,3.3-1.2c1.4,0,2.6,0.5,3.5,1.4s1.4,2.2,1.4,3.9c0,1.3-0.2,2.4-0.6,3.1
		s-1,1.4-1.7,1.8s-1.6,0.6-2.5,0.6c-1.5,0-2.6-0.5-3.5-1.4S961.8,65.9,961.8,64.1z M963.6,64.1c0,1.3,0.3,2.3,0.9,3s1.3,1,2.2,1
		c0.9,0,1.6-0.3,2.2-1s0.9-1.7,0.9-3c0-1.3-0.3-2.3-0.9-2.9s-1.3-1-2.2-1c-0.9,0-1.6,0.3-2.2,1S963.6,62.8,963.6,64.1z"/>
	<path d="M973.6,69.3V59h1.6v1.5c0.8-1.1,1.9-1.7,3.3-1.7c0.6,0,1.2,0.1,1.7,0.3s0.9,0.5,1.2,0.9s0.4,0.8,0.5,1.3
		c0.1,0.3,0.1,0.9,0.1,1.7v6.4h-1.8V63c0-0.7-0.1-1.3-0.2-1.6s-0.4-0.6-0.7-0.8s-0.8-0.3-1.2-0.3c-0.7,0-1.4,0.2-1.9,0.7
		s-0.8,1.4-0.8,2.7v5.7H973.6z"/>
	<path d="M984,66.2l1.7-0.3c0.1,0.7,0.4,1.2,0.8,1.6s1.1,0.6,1.9,0.6c0.8,0,1.4-0.2,1.8-0.5s0.6-0.7,0.6-1.2c0-0.4-0.2-0.7-0.5-0.9
		c-0.2-0.2-0.8-0.4-1.8-0.6c-1.3-0.3-2.2-0.6-2.7-0.8s-0.9-0.6-1.1-1s-0.4-0.9-0.4-1.4c0-0.5,0.1-0.9,0.3-1.3s0.5-0.7,0.9-1
		c0.3-0.2,0.6-0.4,1.1-0.5s1-0.2,1.5-0.2c0.8,0,1.5,0.1,2.1,0.4s1.1,0.6,1.4,1s0.5,0.9,0.6,1.6l-1.7,0.2c-0.1-0.5-0.3-1-0.7-1.3
		s-0.9-0.4-1.6-0.4c-0.8,0-1.4,0.1-1.7,0.4s-0.5,0.6-0.5,0.9c0,0.2,0.1,0.4,0.2,0.6c0.1,0.2,0.4,0.3,0.7,0.5
		c0.2,0.1,0.7,0.2,1.6,0.4c1.2,0.3,2.1,0.6,2.6,0.8s0.9,0.5,1.2,0.9s0.4,0.9,0.4,1.5c0,0.6-0.2,1.1-0.5,1.7s-0.8,0.9-1.5,1.2
		s-1.4,0.4-2.2,0.4c-1.3,0-2.4-0.3-3.1-0.8S984.2,67.3,984,66.2z"/>
</g>
<g>
	<path d="M1117.6,122.6v-14.3h4.9c1.1,0,2,0.1,2.5,0.2c0.8,0.2,1.5,0.5,2.1,1c0.8,0.6,1.3,1.5,1.7,2.4s0.6,2.1,0.6,3.4
		c0,1.1-0.1,2.1-0.4,2.9s-0.6,1.5-1,2.1s-0.8,1-1.3,1.3s-1,0.6-1.7,0.7s-1.4,0.2-2.3,0.2H1117.6z M1119.5,120.9h3.1
		c0.9,0,1.7-0.1,2.2-0.3s1-0.4,1.3-0.7c0.4-0.4,0.8-1.1,1-1.8s0.4-1.7,0.4-2.8c0-1.5-0.2-2.6-0.7-3.5s-1.1-1.3-1.8-1.6
		c-0.5-0.2-1.3-0.3-2.5-0.3h-3V120.9z"/>
	<path d="M1131.8,110.3v-2h1.8v2H1131.8z M1131.8,122.6v-10.4h1.8v10.4H1131.8z"/>
	<path d="M1135.5,119.5l1.7-0.3c0.1,0.7,0.4,1.2,0.8,1.6s1.1,0.6,1.9,0.6c0.8,0,1.4-0.2,1.8-0.5s0.6-0.7,0.6-1.2
		c0-0.4-0.2-0.7-0.5-0.9c-0.2-0.2-0.8-0.4-1.8-0.6c-1.3-0.3-2.2-0.6-2.7-0.8s-0.9-0.6-1.1-1s-0.4-0.9-0.4-1.4c0-0.5,0.1-0.9,0.3-1.3
		s0.5-0.7,0.9-1c0.3-0.2,0.6-0.4,1.1-0.5s1-0.2,1.5-0.2c0.8,0,1.5,0.1,2.1,0.4s1.1,0.6,1.4,1s0.5,0.9,0.6,1.6l-1.7,0.2
		c-0.1-0.5-0.3-1-0.7-1.3s-0.9-0.4-1.6-0.4c-0.8,0-1.4,0.1-1.7,0.4s-0.5,0.6-0.5,0.9c0,0.2,0.1,0.4,0.2,0.6c0.1,0.2,0.4,0.3,0.7,0.5
		c0.2,0.1,0.7,0.2,1.6,0.4c1.2,0.3,2.1,0.6,2.6,0.8s0.9,0.5,1.2,0.9s0.4,0.9,0.4,1.5c0,0.6-0.2,1.1-0.5,1.7s-0.8,0.9-1.5,1.2
		s-1.4,0.4-2.2,0.4c-1.3,0-2.4-0.3-3.1-0.8S1135.7,120.6,1135.5,119.5z"/>
	<path d="M1146.2,126.6v-14.3h1.6v1.3c0.4-0.5,0.8-0.9,1.3-1.2s1.1-0.4,1.7-0.4c0.9,0,1.7,0.2,2.3,0.7s1.2,1.1,1.5,1.9
		s0.5,1.7,0.5,2.7c0,1.1-0.2,2-0.6,2.9s-0.9,1.5-1.7,2s-1.5,0.7-2.3,0.7c-0.6,0-1.1-0.1-1.6-0.4s-0.8-0.6-1.1-0.9v5H1146.2z
		 M1147.8,117.5c0,1.3,0.3,2.3,0.8,3s1.2,1,2,1c0.8,0,1.5-0.3,2-1s0.8-1.7,0.8-3.1c0-1.3-0.3-2.3-0.8-3s-1.2-1-1.9-1
		c-0.7,0-1.4,0.3-2,1S1147.8,116.1,1147.8,117.5z"/>
	<path d="M1157.3,122.6v-14.3h1.8v14.3H1157.3z"/>
	<path d="M1168.6,121.3c-0.7,0.6-1.3,0.9-1.9,1.2s-1.2,0.3-1.9,0.3c-1.1,0-2-0.3-2.6-0.8s-0.9-1.3-0.9-2.1c0-0.5,0.1-1,0.3-1.4
		s0.5-0.8,0.9-1s0.8-0.4,1.3-0.6c0.3-0.1,0.9-0.2,1.6-0.3c1.4-0.2,2.5-0.4,3.1-0.6c0-0.2,0-0.4,0-0.5c0-0.7-0.2-1.2-0.5-1.5
		c-0.4-0.4-1.1-0.6-2-0.6c-0.8,0-1.4,0.1-1.8,0.4s-0.7,0.8-0.9,1.5l-1.7-0.2c0.2-0.7,0.4-1.3,0.8-1.8s0.9-0.8,1.6-1s1.5-0.4,2.4-0.4
		c0.9,0,1.6,0.1,2.2,0.3s1,0.5,1.2,0.8s0.4,0.7,0.5,1.2c0.1,0.3,0.1,0.8,0.1,1.6v2.3c0,1.6,0,2.7,0.1,3.1s0.2,0.8,0.4,1.2h-1.8
		C1168.7,122.2,1168.6,121.8,1168.6,121.3z M1168.4,117.4c-0.6,0.3-1.6,0.5-2.9,0.7c-0.7,0.1-1.2,0.2-1.5,0.4s-0.5,0.3-0.7,0.6
		s-0.2,0.5-0.2,0.8c0,0.5,0.2,0.9,0.5,1.2s0.9,0.5,1.6,0.5c0.7,0,1.3-0.1,1.8-0.4s0.9-0.7,1.2-1.2c0.2-0.4,0.3-1,0.3-1.8V117.4z"/>
	<path d="M1172.9,126.6l-0.2-1.7c0.4,0.1,0.7,0.2,1,0.2c0.4,0,0.7-0.1,0.9-0.2s0.4-0.3,0.6-0.5c0.1-0.2,0.3-0.6,0.5-1.3
		c0-0.1,0.1-0.2,0.2-0.4l-3.9-10.4h1.9l2.2,6c0.3,0.8,0.5,1.6,0.8,2.4c0.2-0.8,0.4-1.6,0.7-2.4l2.2-6h1.8l-3.9,10.5
		c-0.4,1.1-0.8,1.9-1,2.4c-0.3,0.6-0.7,1-1.1,1.3s-0.9,0.4-1.4,0.4C1173.6,126.8,1173.3,126.7,1172.9,126.6z"/>
</g>
<g>
	<path d="M81.4,57.3L75.8,43h2.1l3.7,10.4c0.3,0.8,0.6,1.6,0.8,2.3c0.2-0.8,0.5-1.6,0.8-2.3L87,43h1.9l-5.6,14.3H81.4z"/>
	<path d="M96.4,54l1.8,0.2c-0.3,1.1-0.8,1.9-1.6,2.5s-1.8,0.9-3,0.9c-1.5,0-2.7-0.5-3.6-1.4s-1.3-2.2-1.3-3.9c0-1.7,0.4-3.1,1.3-4.1
		s2.1-1.4,3.5-1.4c1.4,0,2.5,0.5,3.4,1.4s1.3,2.3,1.3,4c0,0.1,0,0.3,0,0.5h-7.7c0.1,1.1,0.4,2,1,2.6s1.3,0.9,2.2,0.9
		c0.6,0,1.2-0.2,1.7-0.5S96.1,54.7,96.4,54z M90.6,51.1h5.8c-0.1-0.9-0.3-1.5-0.7-2c-0.6-0.7-1.3-1-2.2-1c-0.8,0-1.5,0.3-2,0.8
		S90.7,50.2,90.6,51.1z"/>
	<path d="M100.4,57.3V47h1.6v1.6c0.4-0.7,0.8-1.2,1.1-1.5s0.7-0.4,1.1-0.4c0.6,0,1.2,0.2,1.8,0.6l-0.6,1.6c-0.4-0.3-0.9-0.4-1.3-0.4
		c-0.4,0-0.7,0.1-1,0.3s-0.5,0.6-0.7,1c-0.2,0.6-0.3,1.3-0.3,2.1v5.4H100.4z"/>
	<path d="M110.9,55.8l0.3,1.6c-0.5,0.1-0.9,0.2-1.3,0.2c-0.6,0-1.1-0.1-1.5-0.3s-0.6-0.5-0.7-0.8s-0.2-1-0.2-2.1v-6h-1.3V47h1.3
		v-2.6l1.7-1.1V47h1.8v1.4h-1.8v6.1c0,0.5,0,0.8,0.1,1s0.2,0.3,0.3,0.3s0.3,0.1,0.6,0.1C110.3,55.8,110.6,55.8,110.9,55.8z"/>
	<path d="M119.7,54l1.8,0.2c-0.3,1.1-0.8,1.9-1.6,2.5s-1.8,0.9-3,0.9c-1.5,0-2.7-0.5-3.6-1.4s-1.3-2.2-1.3-3.9
		c0-1.7,0.4-3.1,1.3-4.1s2.1-1.4,3.5-1.4c1.4,0,2.5,0.5,3.4,1.4s1.3,2.3,1.3,4c0,0.1,0,0.3,0,0.5h-7.7c0.1,1.1,0.4,2,1,2.6
		s1.3,0.9,2.2,0.9c0.6,0,1.2-0.2,1.7-0.5S119.5,54.7,119.7,54z M114,51.1h5.8c-0.1-0.9-0.3-1.5-0.7-2c-0.6-0.7-1.3-1-2.2-1
		c-0.8,0-1.5,0.3-2,0.8S114,50.2,114,51.1z"/>
	<path d="M122.6,57.3l3.8-5.4l-3.5-5h2.2l1.6,2.4c0.3,0.5,0.5,0.8,0.7,1.2c0.3-0.4,0.6-0.8,0.8-1.1l1.7-2.5h2.1l-3.6,4.9l3.9,5.5
		h-2.2l-2.1-3.2l-0.6-0.9l-2.7,4.1H122.6z"/>
	<path d="M138.9,52.7l1.8-0.2c0.1,0.7,0.3,1.3,0.6,1.8s0.8,0.8,1.4,1.1s1.4,0.4,2.2,0.4c0.7,0,1.4-0.1,1.9-0.3s1-0.5,1.2-0.9
		s0.4-0.8,0.4-1.2c0-0.4-0.1-0.8-0.4-1.2s-0.7-0.6-1.3-0.8c-0.4-0.1-1.2-0.4-2.5-0.7s-2.2-0.6-2.8-0.9c-0.7-0.4-1.2-0.8-1.5-1.3
		s-0.5-1.1-0.5-1.8c0-0.7,0.2-1.4,0.6-2s1-1.1,1.8-1.4s1.7-0.5,2.6-0.5c1.1,0,2,0.2,2.8,0.5s1.4,0.8,1.9,1.5s0.7,1.4,0.7,2.3
		l-1.8,0.1c-0.1-0.9-0.4-1.6-1-2.1s-1.4-0.7-2.5-0.7c-1.1,0-2,0.2-2.5,0.6s-0.8,0.9-0.8,1.5c0,0.5,0.2,0.9,0.6,1.3
		c0.4,0.3,1.3,0.7,2.9,1s2.6,0.7,3.2,0.9c0.8,0.4,1.4,0.9,1.8,1.5s0.6,1.3,0.6,2c0,0.8-0.2,1.5-0.7,2.2s-1.1,1.2-1.9,1.6
		s-1.7,0.6-2.8,0.6c-1.3,0-2.4-0.2-3.3-0.6s-1.6-0.9-2.1-1.7S138.9,53.7,138.9,52.7z"/>
	<path d="M152.7,57.3V43h1.8v5.1c0.8-1,1.9-1.4,3.1-1.4c0.8,0,1.4,0.2,2,0.5s1,0.7,1.2,1.3s0.4,1.3,0.4,2.3v6.6h-1.8v-6.6
		c0-0.9-0.2-1.5-0.6-1.9s-0.9-0.6-1.6-0.6c-0.5,0-1,0.1-1.5,0.4s-0.8,0.6-1,1.1s-0.3,1.1-0.3,1.9v5.7H152.7z"/>
	<path d="M170.5,56c-0.7,0.6-1.3,0.9-1.9,1.2s-1.2,0.3-1.9,0.3c-1.1,0-2-0.3-2.6-0.8s-0.9-1.3-0.9-2.1c0-0.5,0.1-1,0.3-1.4
		s0.5-0.8,0.9-1s0.8-0.4,1.3-0.6c0.3-0.1,0.9-0.2,1.6-0.3c1.4-0.2,2.5-0.4,3.1-0.6c0-0.2,0-0.4,0-0.5c0-0.7-0.2-1.2-0.5-1.5
		c-0.4-0.4-1.1-0.6-2-0.6c-0.8,0-1.4,0.1-1.8,0.4s-0.7,0.8-0.9,1.5l-1.7-0.2c0.2-0.7,0.4-1.3,0.8-1.8s0.9-0.8,1.6-1s1.5-0.4,2.4-0.4
		c0.9,0,1.6,0.1,2.2,0.3s1,0.5,1.2,0.8s0.4,0.7,0.5,1.2c0.1,0.3,0.1,0.8,0.1,1.6V53c0,1.6,0,2.7,0.1,3.1s0.2,0.8,0.4,1.2h-1.8
		C170.7,57,170.6,56.5,170.5,56z M170.4,52.1c-0.6,0.3-1.6,0.5-2.9,0.7c-0.7,0.1-1.2,0.2-1.5,0.4s-0.5,0.3-0.7,0.6s-0.2,0.5-0.2,0.8
		c0,0.5,0.2,0.9,0.5,1.2s0.9,0.5,1.6,0.5c0.7,0,1.3-0.1,1.8-0.4s0.9-0.7,1.2-1.2c0.2-0.4,0.3-1,0.3-1.8V52.1z"/>
	<path d="M181.6,57.3V56c-0.7,1-1.6,1.5-2.9,1.5c-0.8,0-1.6-0.2-2.3-0.7s-1.2-1.1-1.6-1.9s-0.6-1.8-0.6-2.8c0-1,0.2-2,0.5-2.8
		s0.9-1.5,1.6-1.9s1.5-0.7,2.3-0.7c0.6,0,1.2,0.1,1.7,0.4s0.9,0.6,1.2,1V43h1.7v14.3H181.6z M176.1,52.1c0,1.3,0.3,2.3,0.8,3
		s1.2,1,2,1c0.8,0,1.4-0.3,2-0.9s0.8-1.6,0.8-2.9c0-1.4-0.3-2.5-0.8-3.1s-1.2-1-2-1c-0.8,0-1.4,0.3-2,1S176.1,50.8,176.1,52.1z"/>
	<path d="M193.1,54l1.8,0.2c-0.3,1.1-0.8,1.9-1.6,2.5s-1.8,0.9-3,0.9c-1.5,0-2.7-0.5-3.6-1.4s-1.3-2.2-1.3-3.9
		c0-1.7,0.4-3.1,1.3-4.1s2.1-1.4,3.5-1.4c1.4,0,2.5,0.5,3.4,1.4s1.3,2.3,1.3,4c0,0.1,0,0.3,0,0.5h-7.7c0.1,1.1,0.4,2,1,2.6
		s1.3,0.9,2.2,0.9c0.6,0,1.2-0.2,1.7-0.5S192.9,54.7,193.1,54z M187.3,51.1h5.8c-0.1-0.9-0.3-1.5-0.7-2c-0.6-0.7-1.3-1-2.2-1
		c-0.8,0-1.5,0.3-2,0.8S187.4,50.2,187.3,51.1z"/>
	<path d="M197.1,57.3V47h1.6v1.6c0.4-0.7,0.8-1.2,1.1-1.5s0.7-0.4,1.1-0.4c0.6,0,1.2,0.2,1.8,0.6l-0.6,1.6c-0.4-0.3-0.9-0.4-1.3-0.4
		c-0.4,0-0.7,0.1-1,0.3s-0.5,0.6-0.7,1c-0.2,0.6-0.3,1.3-0.3,2.1v5.4H197.1z"/>
</g>
<g>
	<path d="M321.9,40.6l1.8,0.5c-0.4,1.5-1.1,2.6-2,3.4c-1,0.8-2.2,1.2-3.6,1.2c-1.5,0-2.7-0.3-3.6-0.9c-0.9-0.6-1.6-1.5-2.1-2.6
		c-0.5-1.1-0.7-2.3-0.7-3.6c0-1.4,0.3-2.7,0.8-3.7c0.5-1.1,1.3-1.9,2.3-2.4c1-0.5,2.1-0.8,3.3-0.8c1.4,0,2.5,0.3,3.4,1
		c0.9,0.7,1.6,1.7,1.9,2.9l-1.8,0.4c-0.3-1-0.8-1.7-1.4-2.2c-0.6-0.5-1.4-0.7-2.3-0.7c-1,0-1.9,0.3-2.6,0.8c-0.7,0.5-1.2,1.2-1.5,2
		c-0.3,0.8-0.4,1.7-0.4,2.6c0,1.2,0.2,2.2,0.5,3c0.3,0.9,0.9,1.5,1.6,1.9c0.7,0.4,1.5,0.6,2.3,0.6c1,0,1.9-0.3,2.6-0.9
		C321.2,42.6,321.7,41.7,321.9,40.6z"/>
	<path d="M325.7,45.3V31.7h1.7v13.6H325.7z"/>
	<path d="M329.9,33.6v-1.9h1.7v1.9H329.9z M329.9,45.3v-9.9h1.7v9.9H329.9z"/>
	<path d="M334.2,49.1V35.5h1.5v1.3c0.4-0.5,0.8-0.9,1.2-1.1c0.5-0.3,1-0.4,1.6-0.4c0.8,0,1.6,0.2,2.2,0.6c0.6,0.4,1.1,1,1.5,1.8
		c0.3,0.8,0.5,1.7,0.5,2.6c0,1-0.2,1.9-0.5,2.7c-0.4,0.8-0.9,1.4-1.6,1.9c-0.7,0.4-1.4,0.6-2.2,0.6c-0.6,0-1.1-0.1-1.5-0.4
		c-0.4-0.2-0.8-0.5-1.1-0.9v4.8H334.2z M335.7,40.5c0,1.3,0.3,2.2,0.8,2.8c0.5,0.6,1.1,0.9,1.9,0.9c0.7,0,1.4-0.3,1.9-0.9
		c0.5-0.6,0.8-1.6,0.8-2.9c0-1.3-0.3-2.2-0.8-2.8c-0.5-0.6-1.1-0.9-1.9-0.9c-0.7,0-1.3,0.3-1.9,1C335.9,38.2,335.7,39.2,335.7,40.5z
		"/>
	<path d="M344.7,49.1V35.5h1.5v1.3c0.4-0.5,0.8-0.9,1.2-1.1c0.5-0.3,1-0.4,1.6-0.4c0.8,0,1.6,0.2,2.2,0.6c0.6,0.4,1.1,1,1.5,1.8
		c0.3,0.8,0.5,1.7,0.5,2.6c0,1-0.2,1.9-0.5,2.7c-0.4,0.8-0.9,1.4-1.6,1.9c-0.7,0.4-1.4,0.6-2.2,0.6c-0.6,0-1.1-0.1-1.5-0.4
		c-0.4-0.2-0.8-0.5-1.1-0.9v4.8H344.7z M346.2,40.5c0,1.3,0.3,2.2,0.8,2.8c0.5,0.6,1.1,0.9,1.9,0.9c0.7,0,1.4-0.3,1.9-0.9
		c0.5-0.6,0.8-1.6,0.8-2.9c0-1.3-0.3-2.2-0.8-2.8c-0.5-0.6-1.1-0.9-1.9-0.9c-0.7,0-1.3,0.3-1.9,1C346.5,38.2,346.2,39.2,346.2,40.5z
		"/>
	<path d="M355.3,33.6v-1.9h1.7v1.9H355.3z M355.3,45.3v-9.9h1.7v9.9H355.3z"/>
	<path d="M359.5,45.3v-9.9h1.5v1.4c0.7-1.1,1.8-1.6,3.1-1.6c0.6,0,1.1,0.1,1.6,0.3c0.5,0.2,0.9,0.5,1.1,0.8c0.2,0.3,0.4,0.8,0.5,1.2
		c0.1,0.3,0.1,0.9,0.1,1.6v6.1h-1.7v-6c0-0.7-0.1-1.2-0.2-1.5c-0.1-0.3-0.4-0.6-0.7-0.8c-0.3-0.2-0.7-0.3-1.2-0.3
		c-0.7,0-1.3,0.2-1.8,0.7c-0.5,0.5-0.8,1.3-0.8,2.6v5.4H359.5z"/>
	<path d="M369.8,46.1l1.6,0.2c0.1,0.5,0.3,0.9,0.6,1.1c0.4,0.3,1,0.5,1.7,0.5c0.8,0,1.4-0.2,1.8-0.5c0.4-0.3,0.7-0.7,0.9-1.3
		c0.1-0.3,0.1-1.1,0.1-2.1c-0.7,0.9-1.6,1.3-2.7,1.3c-1.4,0-2.4-0.5-3.1-1.5c-0.7-1-1.1-2.1-1.1-3.5c0-0.9,0.2-1.8,0.5-2.6
		c0.3-0.8,0.8-1.4,1.5-1.8c0.6-0.4,1.4-0.6,2.3-0.6c1.2,0,2.1,0.5,2.9,1.4v-1.2h1.5V44c0,1.5-0.2,2.6-0.5,3.3
		c-0.3,0.6-0.8,1.1-1.5,1.5c-0.7,0.4-1.5,0.6-2.5,0.6c-1.2,0-2.1-0.3-2.8-0.8C370.1,48,369.7,47.2,369.8,46.1z M371.2,40.2
		c0,1.3,0.3,2.2,0.8,2.8c0.5,0.6,1.2,0.9,1.9,0.9c0.8,0,1.4-0.3,1.9-0.9c0.5-0.6,0.8-1.5,0.8-2.8c0-1.2-0.3-2.1-0.8-2.7
		c-0.5-0.6-1.2-0.9-1.9-0.9c-0.7,0-1.4,0.3-1.9,0.9C371.4,38.1,371.2,39,371.2,40.2z"/>
	<path d="M393.7,43.7c-0.6,0.6-1.2,1.1-1.8,1.4c-0.6,0.3-1.4,0.5-2.1,0.5c-1.4,0-2.5-0.5-3.3-1.4c-0.7-0.8-1-1.6-1-2.6
		c0-0.8,0.3-1.6,0.8-2.3c0.5-0.7,1.4-1.3,2.4-1.8c-0.6-0.7-1-1.3-1.2-1.7c-0.2-0.4-0.3-0.9-0.3-1.3c0-0.8,0.3-1.5,1-2.1
		c0.6-0.6,1.4-0.9,2.4-0.9c0.9,0,1.7,0.3,2.3,0.9c0.6,0.6,0.9,1.3,0.9,2.1c0,1.3-0.9,2.4-2.6,3.3l2.4,3.1c0.3-0.5,0.5-1.2,0.6-1.9
		l1.7,0.4c-0.3,1.2-0.7,2.2-1.2,2.9c0.6,0.8,1.3,1.5,2.1,2.1l-1.1,1.3C395.1,45.2,394.4,44.6,393.7,43.7z M392.7,42.4l-3.1-3.8
		c-0.9,0.5-1.5,1-1.8,1.5c-0.3,0.5-0.5,0.9-0.5,1.4c0,0.6,0.2,1.1,0.7,1.7c0.4,0.6,1.1,0.9,1.9,0.9c0.5,0,1-0.2,1.6-0.5
		C391.9,43.3,392.3,42.9,392.7,42.4z M390.3,36.6c0.7-0.4,1.2-0.8,1.4-1.1c0.2-0.3,0.3-0.7,0.3-1.1c0-0.5-0.1-0.8-0.4-1.1
		c-0.3-0.3-0.7-0.4-1.1-0.4c-0.5,0-0.8,0.1-1.1,0.4c-0.3,0.3-0.4,0.6-0.4,1.1c0,0.2,0.1,0.4,0.2,0.7c0.1,0.2,0.3,0.5,0.5,0.7
		L390.3,36.6z"/>
	<path d="M275.8,68.1V54.5h5.1c0.9,0,1.6,0,2.1,0.1c0.7,0.1,1.2,0.3,1.7,0.6c0.5,0.3,0.8,0.8,1.1,1.3c0.3,0.6,0.4,1.2,0.4,1.9
		c0,1.2-0.4,2.1-1.1,2.9c-0.7,0.8-2.1,1.2-4,1.2h-3.5v5.5H275.8z M277.6,61h3.5c1.2,0,2-0.2,2.5-0.6c0.5-0.4,0.7-1,0.7-1.8
		c0-0.6-0.1-1.1-0.4-1.5c-0.3-0.4-0.7-0.7-1.1-0.8c-0.3-0.1-0.9-0.1-1.7-0.1h-3.5V61z"/>
	<path d="M288.2,68.1v-9.9h1.5v1.5c0.4-0.7,0.7-1.2,1.1-1.4c0.3-0.2,0.7-0.3,1.1-0.3c0.6,0,1.1,0.2,1.7,0.5l-0.6,1.5
		c-0.4-0.2-0.8-0.4-1.2-0.4c-0.4,0-0.7,0.1-1,0.3c-0.3,0.2-0.5,0.5-0.6,0.9c-0.2,0.6-0.3,1.2-0.3,1.9v5.2H288.2z"/>
	<path d="M294.6,56.4v-1.9h1.7v1.9H294.6z M294.6,68.1v-9.9h1.7v9.9H294.6z"/>
	<path d="M298.8,68.1v-9.9h1.5v1.4c0.3-0.5,0.7-0.9,1.2-1.2c0.5-0.3,1.1-0.4,1.8-0.4c0.7,0,1.3,0.2,1.8,0.5c0.5,0.3,0.8,0.7,1,1.3
		c0.8-1.2,1.8-1.7,3-1.7c1,0,1.7,0.3,2.3,0.8c0.5,0.5,0.8,1.4,0.8,2.5v6.8h-1.7v-6.2c0-0.7-0.1-1.1-0.2-1.4
		c-0.1-0.3-0.3-0.5-0.6-0.7c-0.3-0.2-0.6-0.3-1-0.3c-0.7,0-1.3,0.2-1.7,0.7c-0.5,0.5-0.7,1.2-0.7,2.2v5.7h-1.7v-6.4
		c0-0.7-0.1-1.3-0.4-1.7c-0.3-0.4-0.7-0.6-1.3-0.6c-0.5,0-0.9,0.1-1.3,0.4c-0.4,0.2-0.7,0.6-0.9,1.1c-0.2,0.5-0.3,1.2-0.3,2.1v5.1
		H298.8z"/>
	<path d="M314.6,56.4v-1.9h1.7v1.9H314.6z M314.6,68.1v-9.9h1.7v9.9H314.6z"/>
	<path d="M322.5,66.6l0.2,1.5c-0.5,0.1-0.9,0.1-1.3,0.1c-0.6,0-1.1-0.1-1.4-0.3s-0.6-0.4-0.7-0.8c-0.1-0.3-0.2-1-0.2-2v-5.7h-1.2
		v-1.3h1.2v-2.4l1.7-1v3.4h1.7v1.3h-1.7v5.8c0,0.5,0,0.8,0.1,0.9c0.1,0.1,0.2,0.2,0.3,0.3c0.1,0.1,0.3,0.1,0.6,0.1
		C322,66.7,322.2,66.7,322.5,66.6z"/>
	<path d="M324.1,56.4v-1.9h1.7v1.9H324.1z M324.1,68.1v-9.9h1.7v9.9H324.1z"/>
	<path d="M331.1,68.1l-3.7-9.9h1.8l2.1,5.9c0.2,0.6,0.4,1.3,0.6,2c0.1-0.5,0.4-1.1,0.6-1.9l2.2-6h1.7l-3.7,9.9H331.1z"/>
	<path d="M344.6,65l1.7,0.2c-0.3,1-0.8,1.8-1.5,2.3c-0.7,0.6-1.7,0.8-2.8,0.8c-1.4,0-2.6-0.4-3.4-1.3c-0.8-0.9-1.3-2.1-1.3-3.7
		c0-1.7,0.4-2.9,1.3-3.9c0.9-0.9,2-1.4,3.3-1.4c1.3,0,2.4,0.4,3.2,1.3c0.8,0.9,1.3,2.2,1.3,3.8c0,0.1,0,0.2,0,0.4H339
		c0.1,1.1,0.4,1.9,0.9,2.5c0.6,0.6,1.2,0.9,2.1,0.9c0.6,0,1.1-0.2,1.6-0.5C344,66.2,344.3,65.7,344.6,65z M339.1,62.3h5.5
		c-0.1-0.8-0.3-1.5-0.6-1.9c-0.5-0.6-1.2-1-2.1-1c-0.8,0-1.4,0.3-1.9,0.8C339.5,60.7,339.2,61.4,339.1,62.3z"/>
	<path d="M351.4,68.1l5.2-13.6h1.9l5.6,13.6h-2.1l-1.6-4.1h-5.7l-1.5,4.1H351.4z M355.3,62.5h4.6l-1.4-3.8c-0.4-1.1-0.8-2.1-1-2.8
		c-0.2,0.9-0.4,1.7-0.7,2.6L355.3,62.5z"/>
	<path d="M364.7,65.2l1.7-0.3c0.1,0.7,0.4,1.2,0.8,1.5c0.4,0.4,1,0.5,1.8,0.5c0.8,0,1.3-0.2,1.7-0.5c0.4-0.3,0.6-0.7,0.6-1.1
		c0-0.4-0.2-0.7-0.5-0.9c-0.2-0.1-0.8-0.3-1.7-0.6c-1.2-0.3-2.1-0.6-2.5-0.8c-0.5-0.2-0.8-0.5-1.1-0.9c-0.2-0.4-0.4-0.8-0.4-1.3
		c0-0.4,0.1-0.8,0.3-1.2c0.2-0.4,0.5-0.7,0.8-0.9c0.3-0.2,0.6-0.4,1.1-0.5c0.4-0.1,0.9-0.2,1.4-0.2c0.8,0,1.5,0.1,2,0.3
		c0.6,0.2,1,0.5,1.3,0.9c0.3,0.4,0.5,0.9,0.6,1.5l-1.6,0.2c-0.1-0.5-0.3-0.9-0.6-1.2c-0.4-0.3-0.9-0.4-1.5-0.4
		c-0.8,0-1.3,0.1-1.6,0.4c-0.3,0.3-0.5,0.6-0.5,0.9c0,0.2,0.1,0.4,0.2,0.6c0.1,0.2,0.3,0.3,0.6,0.4c0.2,0.1,0.7,0.2,1.5,0.4
		c1.2,0.3,2,0.6,2.5,0.8c0.5,0.2,0.8,0.5,1.1,0.9c0.3,0.4,0.4,0.9,0.4,1.4c0,0.6-0.2,1.1-0.5,1.6c-0.3,0.5-0.8,0.9-1.4,1.1
		c-0.6,0.3-1.3,0.4-2.1,0.4c-1.3,0-2.3-0.3-2.9-0.8C365.3,67,364.8,66.2,364.7,65.2z"/>
	<path d="M374.2,65.2l1.7-0.3c0.1,0.7,0.4,1.2,0.8,1.5c0.4,0.4,1,0.5,1.8,0.5c0.8,0,1.3-0.2,1.7-0.5c0.4-0.3,0.6-0.7,0.6-1.1
		c0-0.4-0.2-0.7-0.5-0.9c-0.2-0.1-0.8-0.3-1.7-0.6c-1.2-0.3-2.1-0.6-2.5-0.8c-0.5-0.2-0.8-0.5-1.1-0.9c-0.2-0.4-0.4-0.8-0.4-1.3
		c0-0.4,0.1-0.8,0.3-1.2c0.2-0.4,0.5-0.7,0.8-0.9c0.3-0.2,0.6-0.4,1.1-0.5c0.4-0.1,0.9-0.2,1.4-0.2c0.8,0,1.5,0.1,2,0.3
		c0.6,0.2,1,0.5,1.3,0.9c0.3,0.4,0.5,0.9,0.6,1.5l-1.6,0.2c-0.1-0.5-0.3-0.9-0.6-1.2c-0.4-0.3-0.9-0.4-1.5-0.4
		c-0.8,0-1.3,0.1-1.6,0.4c-0.3,0.3-0.5,0.6-0.5,0.9c0,0.2,0.1,0.4,0.2,0.6c0.1,0.2,0.3,0.3,0.6,0.4c0.2,0.1,0.7,0.2,1.5,0.4
		c1.2,0.3,2,0.6,2.5,0.8c0.5,0.2,0.8,0.5,1.1,0.9c0.3,0.4,0.4,0.9,0.4,1.4c0,0.6-0.2,1.1-0.5,1.6c-0.3,0.5-0.8,0.9-1.4,1.1
		c-0.6,0.3-1.3,0.4-2.1,0.4c-1.3,0-2.3-0.3-2.9-0.8C374.8,67,374.3,66.2,374.2,65.2z"/>
	<path d="M391.1,65l1.7,0.2c-0.3,1-0.8,1.8-1.5,2.3c-0.7,0.6-1.7,0.8-2.8,0.8c-1.4,0-2.6-0.4-3.4-1.3c-0.8-0.9-1.3-2.1-1.3-3.7
		c0-1.7,0.4-2.9,1.3-3.9c0.9-0.9,2-1.4,3.3-1.4c1.3,0,2.4,0.4,3.2,1.3c0.8,0.9,1.3,2.2,1.3,3.8c0,0.1,0,0.2,0,0.4h-7.3
		c0.1,1.1,0.4,1.9,0.9,2.5c0.6,0.6,1.2,0.9,2.1,0.9c0.6,0,1.1-0.2,1.6-0.5C390.5,66.2,390.8,65.7,391.1,65z M385.6,62.3h5.5
		c-0.1-0.8-0.3-1.5-0.6-1.9c-0.5-0.6-1.2-1-2.1-1c-0.8,0-1.4,0.3-1.9,0.8C385.9,60.7,385.6,61.4,385.6,62.3z"/>
	<path d="M394.9,68.1v-9.9h1.5v1.4c0.3-0.5,0.7-0.9,1.2-1.2c0.5-0.3,1.1-0.4,1.8-0.4c0.7,0,1.3,0.2,1.8,0.5c0.5,0.3,0.8,0.7,1,1.3
		c0.8-1.2,1.8-1.7,3-1.7c1,0,1.7,0.3,2.3,0.8c0.5,0.5,0.8,1.4,0.8,2.5v6.8h-1.7v-6.2c0-0.7-0.1-1.1-0.2-1.4
		c-0.1-0.3-0.3-0.5-0.6-0.7c-0.3-0.2-0.6-0.3-1-0.3c-0.7,0-1.3,0.2-1.7,0.7c-0.5,0.5-0.7,1.2-0.7,2.2v5.7h-1.7v-6.4
		c0-0.7-0.1-1.3-0.4-1.7c-0.3-0.4-0.7-0.6-1.3-0.6c-0.5,0-0.9,0.1-1.3,0.4c-0.4,0.2-0.7,0.6-0.9,1.1c-0.2,0.5-0.3,1.2-0.3,2.1v5.1
		H394.9z"/>
	<path d="M412.3,68.1h-1.5V54.5h1.7v4.9c0.7-0.9,1.6-1.3,2.7-1.3c0.6,0,1.2,0.1,1.7,0.4c0.5,0.2,1,0.6,1.3,1c0.3,0.4,0.6,1,0.8,1.6
		c0.2,0.6,0.3,1.3,0.3,2c0,1.7-0.4,3-1.3,3.9c-0.8,0.9-1.8,1.4-3,1.4c-1.2,0-2.1-0.5-2.7-1.5V68.1z M412.2,63.1c0,1.2,0.2,2,0.5,2.6
		c0.5,0.9,1.2,1.3,2.1,1.3c0.7,0,1.4-0.3,1.9-1c0.5-0.6,0.8-1.6,0.8-2.8c0-1.3-0.3-2.2-0.8-2.8c-0.5-0.6-1.1-0.9-1.9-0.9
		c-0.7,0-1.4,0.3-1.9,1C412.5,61,412.2,61.9,412.2,63.1z"/>
	<path d="M421.3,68.1V54.5h1.7v13.6H421.3z"/>
	<path d="M425.4,71.9l-0.2-1.6c0.4,0.1,0.7,0.1,1,0.1c0.4,0,0.7-0.1,0.9-0.2c0.2-0.1,0.4-0.3,0.5-0.5c0.1-0.2,0.3-0.6,0.5-1.2
		c0-0.1,0.1-0.2,0.1-0.4l-3.7-9.9h1.8l2.1,5.7c0.3,0.7,0.5,1.5,0.7,2.3c0.2-0.8,0.4-1.5,0.7-2.2l2.1-5.7h1.7l-3.7,10
		c-0.4,1.1-0.7,1.8-0.9,2.2c-0.3,0.6-0.6,1-1,1.2c-0.4,0.3-0.8,0.4-1.4,0.4C426.2,72.1,425.8,72.1,425.4,71.9z"/>
</g>
</svg>
